<svg width="24" height="24" viewBox="0 0 24 24" fill="none" xmlns="http://www.w3.org/2000/svg">
<path fill-rule="evenodd" clip-rule="evenodd" d="M19.5309 11.4802C19.8101 11.7705 19.8101 12.2295 19.5309 12.5198C18.5824 13.5063 17.6082 14.4739 16.6414 15.4342C16.2727 15.8004 15.9051 16.1656 15.5403 16.5303C15.2474 16.8232 14.7726 16.8232 14.4797 16.5303C14.1868 16.2374 14.1868 15.7626 14.4797 15.4697C14.8523 15.097 15.2247 14.7271 15.5961 14.3583C16.1361 13.8218 16.674 13.2876 17.2075 12.75H8.01001C6.76737 12.75 5.76001 13.7574 5.76001 15V16C5.76001 16.4142 5.42422 16.75 5.01001 16.75C4.59579 16.75 4.26001 16.4142 4.26001 16V15C4.26001 12.9289 5.93894 11.25 8.01001 11.25H17.2075C16.674 10.7124 16.1361 10.1782 15.5961 9.64172C15.2247 9.27287 14.8523 8.903 14.4797 8.53033C14.1868 8.23744 14.1868 7.76256 14.4797 7.46967C14.7726 7.17678 15.2474 7.17678 15.5403 7.46967C15.9051 7.83442 16.2727 8.19958 16.6414 8.56581C17.6082 9.52609 18.5824 10.4937 19.5309 11.4802Z" fill="#737373"/>
</svg>
