<svg width="24" height="24" viewBox="0 0 24 24" fill="none" xmlns="http://www.w3.org/2000/svg">
<path fill-rule="evenodd" clip-rule="evenodd" d="M15.5654 6.68609C15.709 6.68609 15.8254 6.56969 15.8254 6.42609C15.8254 4.07609 14.3154 2.49609 12.0554 2.49609H6.28537C4.02537 2.49609 2.50537 4.07609 2.50537 6.42609V11.8661C2.50537 14.2261 4.02537 15.8061 6.28537 15.8061H6.37537C6.54106 15.8061 6.67537 15.6718 6.67537 15.5061V12.1261C6.67537 8.97609 8.89537 6.68609 11.9454 6.68609H15.5654Z" fill="#737373"/>
<path fill-rule="evenodd" clip-rule="evenodd" d="M17.7216 8.18579H11.9486C9.69154 8.18579 8.17554 9.76979 8.17554 12.1258V17.5648C8.17554 19.9208 9.69154 21.5048 11.9486 21.5048H17.7206C19.9776 21.5048 21.4946 19.9208 21.4946 17.5648V12.1258C21.4946 9.76979 19.9786 8.18579 17.7216 8.18579Z" fill="#737373"/>
</svg>
