<svg width="24" height="24" viewBox="0 0 24 24" fill="none" xmlns="http://www.w3.org/2000/svg">
<path fill-rule="evenodd" clip-rule="evenodd" d="M16.3033 16.2701C16.3033 15.4561 16.0713 14.7031 14.3833 14.7031H9.68121C7.99421 14.7031 7.76221 15.4561 7.76221 16.2701V21.2833C7.76221 21.3937 7.85091 21.4832 7.96129 21.4833C9.105 21.4845 14.8331 21.4903 16.1072 21.491C16.2176 21.4911 16.3053 21.4016 16.3052 21.2911C16.3051 19.618 16.3033 17.9437 16.3033 16.2701Z" fill="#737373"/>
<path fill-rule="evenodd" clip-rule="evenodd" d="M13.937 8.84512H8.40596C7.99196 8.84512 7.65596 8.50912 7.65596 8.09512C7.65596 7.68112 7.99196 7.34512 8.40596 7.34512H13.937C14.351 7.34512 14.687 7.68112 14.687 8.09512C14.687 8.50912 14.351 8.84512 13.937 8.84512ZM20.72 8.05412L16.245 3.39212C15.697 2.82312 14.929 2.49512 14.139 2.49512H7.81496C4.65596 2.49512 2.53296 4.71612 2.53296 8.02112V15.9691C2.53296 18.5907 3.88156 20.5087 6.01122 21.1977C6.13656 21.2382 6.26196 21.1425 6.26196 21.0107V16.2691C6.26196 14.3201 7.50796 13.2021 9.68096 13.2021H14.383C16.557 13.2021 17.803 14.3201 17.803 16.2691V21.0108C17.803 21.1425 17.9284 21.2382 18.0537 21.1977C20.1843 20.5088 21.533 18.5907 21.533 15.9691V10.0751C21.533 9.31712 21.244 8.59912 20.72 8.05412Z" fill="#737373"/>
</svg>
