<svg width="24" height="24" viewBox="0 0 24 24" fill="none" xmlns="http://www.w3.org/2000/svg">
<path d="M12.25 21.1717L11.95 21.0417C7.24006 18.9517 2.23006 14.8517 2.25006 9.59169C2.26006 6.49169 3.98006 4.00169 6.73006 3.12169C8.84006 2.44169 10.77 2.95169 12.25 4.56169C13.73 2.95169 15.66 2.44169 17.77 3.12169C20.52 4.01169 22.24 6.49169 22.25 9.60169C22.28 14.8517 17.26 18.9517 12.55 21.0417L12.25 21.1717ZM8.50006 4.32169C8.08006 4.32169 7.65006 4.39169 7.19006 4.54169C4.66006 5.35169 3.75006 7.69169 3.75006 9.60169C3.73006 14.0217 8.25006 17.6717 12.25 19.5217C16.25 17.6717 20.77 14.0217 20.75 9.60169C20.75 7.69169 19.83 5.36169 17.31 4.54169C15.52 3.96169 14.03 4.52169 12.87 6.18169L12.25 7.06169L11.63 6.18169C10.77 4.94169 9.72006 4.31169 8.50006 4.31169V4.32169Z" fill="#737373"/>
</svg>
