<svg width="24" height="24" viewBox="0 0 24 24" fill="none" xmlns="http://www.w3.org/2000/svg">
<path d="M13.852 17.164C14.724 16.98 15.352 16.832 15.736 16.72C16.12 16.616 16.408 16.484 16.6 16.324C16.792 16.172 16.888 15.96 16.888 15.688L16.876 15.52H15.916C15.444 15.52 15.036 15.444 14.692 15.292C14.348 15.14 14.028 14.948 13.732 14.716C13.532 14.98 13.276 15.18 12.964 15.316C12.652 15.452 12.308 15.52 11.932 15.52C11.372 15.52 10.932 15.436 10.612 15.268C10.292 15.1 10.052 14.828 9.892 14.452C9.74 14.076 9.648 13.564 9.616 12.916L9.412 8.416L7.588 8.86L8.224 13.156C8.256 13.356 8.272 13.564 8.272 13.78C8.272 14.316 8.148 14.76 7.9 15.112C7.66 15.456 7.32 15.732 6.88 15.94C6.44 16.156 5.884 16.344 5.212 16.504C4.812 16.592 4.448 16.636 4.12 16.636C3.48 16.636 2.924 16.492 2.452 16.204C1.988 15.916 1.628 15.512 1.372 14.992C1.124 14.464 1 13.848 1 13.144C1 12.376 1.156 11.544 1.468 10.648L2.716 11.14C2.452 11.884 2.32 12.56 2.32 13.168C2.32 13.808 2.472 14.3 2.776 14.644C3.088 14.988 3.532 15.16 4.108 15.16C4.388 15.16 4.656 15.128 4.912 15.064C5.464 14.936 5.868 14.828 6.124 14.74C6.388 14.652 6.592 14.532 6.736 14.38C6.88 14.22 6.952 13.996 6.952 13.708C6.952 13.564 6.944 13.448 6.928 13.36L6.34 9.292L7.132 7.696L9.46 7.084C9.62 7.028 9.776 7 9.928 7C10.176 7 10.368 7.08 10.504 7.24C10.648 7.4 10.728 7.616 10.744 7.888L10.936 12.916C10.952 13.252 10.984 13.496 11.032 13.648C11.08 13.8 11.168 13.904 11.296 13.96C11.432 14.016 11.644 14.044 11.932 14.044C12.556 14.044 12.956 13.852 13.132 13.468L13.9 11.908C14.132 11.452 14.4 11.12 14.704 10.912C15.008 10.704 15.36 10.6 15.76 10.6C16.144 10.6 16.496 10.712 16.816 10.936C17.144 11.16 17.412 11.476 17.62 11.884C17.828 12.292 17.96 12.756 18.016 13.276L18.1 14.044H19.96C20.32 14.044 20.592 13.988 20.776 13.876C20.96 13.764 21.052 13.568 21.052 13.288C21.052 13.16 21.028 13 20.98 12.808L20.512 11.02L21.784 10.648L22.276 12.508C22.348 12.796 22.384 13.068 22.384 13.324C22.384 13.772 22.28 14.164 22.072 14.5C21.864 14.828 21.576 15.08 21.208 15.256C20.84 15.432 20.424 15.52 19.96 15.52H18.232L18.244 15.7C18.268 16.268 18.148 16.724 17.884 17.068C17.62 17.42 17.192 17.708 16.6 17.932C16.016 18.164 15.188 18.388 14.116 18.604L13.852 17.164ZM4.96 8.86L4.972 10.288L3.556 10.312L3.52 8.884L4.96 8.86ZM14.452 13.528C14.956 13.872 15.504 14.044 16.096 14.044H16.84L16.78 13.432C16.732 12.984 16.616 12.648 16.432 12.424C16.248 12.192 16.008 12.076 15.712 12.076C15.48 12.076 15.288 12.152 15.136 12.304C14.992 12.448 14.864 12.636 14.752 12.868L14.452 13.528ZM17.212 7.912H21.184V9.112L17.212 9.1V7.912Z" fill="#737373"/>
</svg>
