<svg width="24" height="24" viewBox="0 0 24 24" fill="none" xmlns="http://www.w3.org/2000/svg">
<path fill-rule="evenodd" clip-rule="evenodd" d="M8.86889 15.7404C9.16089 15.4484 9.63789 15.4484 9.92989 15.7424L11.1529 16.9694L14.2399 13.8814C14.5319 13.5894 15.0069 13.5884 15.3009 13.8814C15.5939 14.1744 15.5939 14.6484 15.3009 14.9414L11.6829 18.5604C11.5429 18.7014 11.3519 18.7804 11.1529 18.7804C10.9539 18.7804 10.7629 18.7014 10.6219 18.5594L8.86689 16.8014C8.57489 16.5084 8.57489 16.0334 8.86889 15.7404ZM3.48389 16.8654C3.48389 19.8454 5.27389 21.6254 8.27389 21.6254H15.8939C18.8939 21.6254 20.6839 19.8754 20.6839 16.9354V11.2254C20.6839 11.1149 20.5944 11.0254 20.4839 11.0254H3.68389C3.57343 11.0254 3.48389 11.1149 3.48389 11.2254V16.8654Z" fill="#737373"/>
<path fill-rule="evenodd" clip-rule="evenodd" d="M19.4541 5.325C18.7241 4.605 17.6941 4.195 16.4741 4.085V3.125C16.4741 2.715 16.1341 2.375 15.7241 2.375C15.3041 2.375 14.9741 2.715 14.9741 3.125V6.675C14.9041 6.695 14.8441 6.715 14.7741 6.715C14.3541 6.715 14.0241 6.375 14.0241 5.965V4.245C14.0241 4.13454 13.9346 4.045 13.8241 4.045H9.19413V3.125C9.19413 2.715 8.86413 2.375 8.44413 2.375C8.03413 2.375 7.69413 2.715 7.69413 3.125V6.675C7.63413 6.695 7.56413 6.715 7.49413 6.715C7.08413 6.715 6.74413 6.375 6.74413 5.965V4.50055C6.74413 4.37063 6.62177 4.27513 6.49731 4.31245C4.5886 4.88473 3.48413 6.43211 3.48413 8.725V9.325C3.48413 9.43546 3.57367 9.525 3.68413 9.525H20.4841C20.5946 9.525 20.6841 9.43546 20.6841 9.325V8.725C20.6841 7.315 20.2641 6.135 19.4541 5.325Z" fill="#737373"/>
</svg>
