<svg width="24" height="24" viewBox="0 0 24 24" fill="none" xmlns="http://www.w3.org/2000/svg">
<path d="M4.23047 9.46307H19.9288" stroke="#737373" stroke-width="1.5" stroke-linecap="round" stroke-linejoin="round"/>
<path d="M15.6082 3V5.87229" stroke="#737373" stroke-width="1.5" stroke-linecap="round" stroke-linejoin="round"/>
<path d="M8.55542 3V5.87229" stroke="#737373" stroke-width="1.5" stroke-linecap="round" stroke-linejoin="round"/>
<path d="M19.9327 11.364V8.43046C19.9404 5.80629 18.3477 4.37793 15.777 4.37793H8.38708C5.82324 4.37793 4.22266 5.80629 4.22266 8.43046V16.3293C4.22266 18.9943 5.82324 20.4557 8.38708 20.4557H10.5374" stroke="#737373" stroke-width="1.5" stroke-linecap="round" stroke-linejoin="round"/>
<path fill-rule="evenodd" clip-rule="evenodd" d="M20.7861 17.1382C20.7861 19.271 19.0571 21 16.9233 21C14.7905 21 13.0615 19.271 13.0615 17.1382C13.0615 15.0054 14.7905 13.2754 16.9233 13.2754C19.0571 13.2754 20.7861 15.0054 20.7861 17.1382Z" stroke="#737373" stroke-width="1.5" stroke-linecap="round" stroke-linejoin="round"/>
<path d="M18.123 18.142L16.9019 17.4122V15.8428" stroke="#737373" stroke-width="1.5" stroke-linecap="round" stroke-linejoin="round"/>
<path d="M8.16992 12.9414H8.17992" stroke="#737373" stroke-width="1.5" stroke-linecap="round" stroke-linejoin="round"/>
<path d="M8.16992 16.418H8.17992" stroke="#737373" stroke-width="1.5" stroke-linecap="round" stroke-linejoin="round"/>
<path d="M11.8379 12.9414H11.8479" stroke="#737373" stroke-width="1.5" stroke-linecap="round" stroke-linejoin="round"/>
</svg>
