<svg width="24" height="24" viewBox="0 0 24 24" fill="none" xmlns="http://www.w3.org/2000/svg">
<path fill-rule="evenodd" clip-rule="evenodd" d="M17.2494 3.5C16.1721 3.5 15.2995 4.37263 15.2995 5.44997C15.2995 6.52731 16.1721 7.39994 17.2494 7.39994C18.3268 7.39994 19.1994 6.52731 19.1994 5.44997C19.1994 4.37263 18.3268 3.5 17.2494 3.5ZM13.7995 5.44997C13.7995 3.54421 15.3437 2 17.2494 2C19.1552 2 20.6994 3.54421 20.6994 5.44997C20.6994 7.35574 19.1552 8.89994 17.2494 8.89994C15.3437 8.89994 13.7995 7.35574 13.7995 5.44997ZM6.44997 9.7996C5.37263 9.7996 4.5 10.6722 4.5 11.7495C4.5 12.8269 5.37263 13.6995 6.44997 13.6995C7.52731 13.6995 8.39994 12.8269 8.39994 11.7495C8.39994 10.6722 7.52731 9.7996 6.44997 9.7996ZM3 11.7495C3 9.8438 4.54421 8.29955 6.44997 8.29955C8.35574 8.29955 9.89994 9.8438 9.89994 11.7495C9.89994 13.6553 8.35574 15.1995 6.44997 15.1995C4.54421 15.1995 3 13.6553 3 11.7495ZM17.2494 16.1001C16.1721 16.1001 15.2995 16.9727 15.2995 18.05C15.2995 19.1266 16.1723 20 17.2494 20C18.3266 20 19.1994 19.1266 19.1994 18.05C19.1994 16.9727 18.3268 16.1001 17.2494 16.1001ZM13.7995 18.05C13.7995 16.1443 15.3437 14.6001 17.2494 14.6001C19.1552 14.6001 20.6994 16.1443 20.6994 18.05C20.6994 19.9546 19.1554 21.5 17.2494 21.5C15.3435 21.5 13.7995 19.9546 13.7995 18.05Z" fill="#737373"/>
<path fill-rule="evenodd" clip-rule="evenodd" d="M15.5363 6.37217C15.745 6.72994 15.6242 7.18918 15.2665 7.39793L9.12804 10.9794C8.77031 11.1881 8.31106 11.0673 8.10232 10.7096C7.89358 10.3518 8.01439 9.89251 8.37216 9.6838L14.5105 6.10233C14.8683 5.89358 15.3276 6.01439 15.5363 6.37217ZM8.10308 12.672C8.31164 12.3142 8.77083 12.1931 9.12874 12.4017L15.2758 15.9841C15.6337 16.1927 15.7548 16.6519 15.5462 17.0098C15.3376 17.3676 14.8784 17.4887 14.5206 17.2801L8.37343 13.6977C8.01556 13.4891 7.89452 13.0299 8.10308 12.672Z" fill="#737373"/>
</svg>
