<svg width="24" height="24" viewBox="0 0 24 24" fill="none" xmlns="http://www.w3.org/2000/svg">
<path fill-rule="evenodd" clip-rule="evenodd" d="M7.36849 8.79405C7.78249 8.79405 8.11849 9.13005 8.11849 9.54405C8.11849 9.95805 7.78249 10.294 7.36849 10.294H6.43549C4.81649 10.294 3.50049 11.61 3.50049 13.228V18.103C3.50049 19.722 4.81649 21.038 6.43549 21.038H17.5655C19.1835 21.038 20.5005 19.722 20.5005 18.103V13.219C20.5005 11.606 19.1885 10.294 17.5765 10.294H16.6335C16.2195 10.294 15.8835 9.95805 15.8835 9.54405C15.8835 9.13005 16.2195 8.79405 16.6335 8.79405H17.5765C20.0155 8.79405 22.0005 10.779 22.0005 13.219V18.103C22.0005 20.549 20.0105 22.538 17.5655 22.538H6.43549C3.99049 22.538 2.00049 20.549 2.00049 18.103V13.228C2.00049 10.783 3.99049 8.79405 6.43549 8.79405H7.36849ZM12.5311 2.22165L15.4471 5.14965C15.7391 5.44365 15.7381 5.91765 15.4451 6.20965C15.1511 6.50165 14.6771 6.50165 14.3851 6.20765L12.7495 4.5664L12.7501 15.5409H11.2501L11.2495 4.5664L9.61609 6.20765C9.47009 6.35565 9.27709 6.42865 9.08509 6.42865C8.89409 6.42865 8.70209 6.35565 8.55609 6.20965C8.26309 5.91765 8.26109 5.44365 8.55409 5.14965L11.4691 2.22165C11.7501 1.93865 12.2501 1.93865 12.5311 2.22165Z" fill="#737373"/>
</svg>
