<svg width="24" height="24" viewBox="0 0 24 24" fill="none" xmlns="http://www.w3.org/2000/svg">
<path fill-rule="evenodd" clip-rule="evenodd" d="M8.2825 16.5517C7.98961 16.2588 7.51474 16.2588 7.22184 16.5517L4.88031 18.8932C4.58742 19.1861 4.58742 19.661 4.88031 19.9539L7.22184 22.2954C7.51474 22.5883 7.98961 22.5883 8.2825 22.2954C8.5754 22.0025 8.5754 21.5277 8.2825 21.2348L7.2213 20.1736H19.5899C20.0042 20.1736 20.3399 19.8378 20.3399 19.4236C20.3399 19.0094 20.0042 18.6736 19.5899 18.6736H7.2213L8.2825 17.6124C8.5754 17.3195 8.5754 16.8446 8.2825 16.5517Z" fill="#737373"/>
<path fill-rule="evenodd" clip-rule="evenodd" d="M5.26855 7.41928C5.26855 4.98721 7.24013 3.01562 9.6722 3.01562H16.4575C16.8718 3.01562 17.2075 3.35142 17.2075 3.76562C17.2075 4.17984 16.8718 4.51563 16.4575 4.51563H9.6722C8.06856 4.51563 6.76855 5.81564 6.76855 7.41928C6.76855 9.02292 8.06856 10.3229 9.6722 10.3229H10.1942C10.6084 10.3229 10.9442 10.6587 10.9442 11.0729C10.9442 11.4871 10.6084 11.8229 10.1942 11.8229H9.6722C7.24013 11.8229 5.26855 9.85135 5.26855 7.41928Z" fill="#737373"/>
<path fill-rule="evenodd" clip-rule="evenodd" d="M14.3706 3.01562C14.7848 3.01562 15.1206 3.35142 15.1206 3.76562V15.2485C15.1206 15.6627 14.7848 15.9985 14.3706 15.9985C13.9564 15.9985 13.6206 15.6627 13.6206 15.2485V3.76562C13.6206 3.35142 13.9564 3.01562 14.3706 3.01562Z" fill="#737373"/>
<path fill-rule="evenodd" clip-rule="evenodd" d="M10.1948 3.01562C10.609 3.01562 10.9448 3.35142 10.9448 3.76562V15.2485C10.9448 15.6627 10.609 15.9985 10.1948 15.9985C9.78061 15.9985 9.44482 15.6627 9.44482 15.2485V3.76562C9.44482 3.35142 9.78061 3.01562 10.1948 3.01562Z" fill="#737373"/>
</svg>
