<svg width="24" height="24" viewBox="0 0 24 24" fill="none" xmlns="http://www.w3.org/2000/svg">
<path d="M11.7259 20C11.3462 20 11.0324 19.7178 10.9827 19.3518L10.9759 19.25L10.9765 6.066L6.23296 10.829C5.9407 11.1225 5.46582 11.1235 5.1723 10.8313C4.90546 10.5656 4.88036 10.149 5.09758 9.85489L5.17002 9.77061L11.194 3.72061C11.2325 3.68192 11.2742 3.64832 11.3183 3.61979C11.3315 3.61174 11.3451 3.60354 11.3589 3.59576C11.3708 3.58861 11.3831 3.58215 11.3955 3.57606C11.4136 3.56759 11.4323 3.55932 11.4514 3.55181C11.4662 3.5457 11.4805 3.54061 11.4949 3.53596C11.5128 3.53043 11.5319 3.52506 11.5512 3.52045C11.5647 3.51701 11.5777 3.51429 11.5908 3.51192C11.6102 3.50859 11.6303 3.50575 11.6507 3.50372C11.6662 3.50197 11.6816 3.50092 11.697 3.50034C11.7063 3.50019 11.7161 3.5 11.7259 3.5L11.7549 3.50038C11.7697 3.50095 11.7844 3.50196 11.799 3.50339L11.7259 3.5C11.7732 3.5 11.8195 3.50438 11.8644 3.51277C11.8751 3.51471 11.8861 3.51703 11.8971 3.51959C11.9197 3.52492 11.9414 3.53108 11.9627 3.53817C11.9733 3.54165 11.9846 3.5457 11.9959 3.55003C12.0184 3.5588 12.04 3.56833 12.0609 3.5788C12.0708 3.58367 12.0811 3.58912 12.0913 3.59484C12.108 3.60421 12.1238 3.61386 12.1392 3.62407C12.1501 3.63128 12.1615 3.63925 12.1727 3.64758L12.1813 3.65407C12.2077 3.67428 12.2327 3.6962 12.2562 3.71967L12.2569 3.72057L18.2819 9.77057C18.5742 10.0641 18.5732 10.5389 18.2797 10.8312C18.0129 11.0969 17.5962 11.1203 17.303 10.9018L17.2191 10.829L12.4765 6.068L12.4759 19.25C12.4759 19.6642 12.1401 20 11.7259 20Z" fill="#737373"/>
</svg>
