<svg width="24" height="24" viewBox="0 0 24 24" fill="none" xmlns="http://www.w3.org/2000/svg">
<path fill-rule="evenodd" clip-rule="evenodd" d="M19.9401 8.80078H17.3771C17.2114 8.80078 17.0771 8.9351 17.0771 9.10078V21.5008C17.0771 21.6665 17.2114 21.8008 17.3771 21.8008H19.9401C20.9501 21.8008 21.7721 20.9798 21.7721 19.9708V10.6308C21.7721 9.62178 20.9501 8.80078 19.9401 8.80078Z" fill="#737373"/>
<path fill-rule="evenodd" clip-rule="evenodd" d="M11.6184 10.7478C11.5714 10.7568 11.5244 10.7608 11.4774 10.7608C11.1244 10.7608 10.8094 10.5108 10.7414 10.1508C10.6634 9.74478 10.9304 9.34678 11.3374 9.26878C11.7384 9.19078 12.1354 9.45278 12.2134 9.86078L12.2154 9.87078C12.2924 10.2778 12.0254 10.6698 11.6184 10.7478ZM10.7434 13.8178C10.6614 13.4118 10.9244 13.0118 11.3304 12.9308C11.7384 12.8498 12.1304 13.1078 12.2114 13.5138L12.2134 13.5238C12.2954 13.9298 12.0314 14.3248 11.6254 14.4058C11.5764 14.4158 11.5264 14.4208 11.4774 14.4208C11.1274 14.4208 10.8144 14.1738 10.7434 13.8178ZM11.6184 17.9978C11.5714 18.0068 11.5244 18.0108 11.4774 18.0108C11.1244 18.0108 10.8094 17.7608 10.7414 17.4008C10.6634 16.9948 10.9304 16.5968 11.3374 16.5188C11.7384 16.4378 12.1354 16.7038 12.2134 17.1108L12.2154 17.1208C12.2924 17.5278 12.0254 17.9198 11.6184 17.9978ZM7.61643 10.7478C7.56943 10.7568 7.52243 10.7608 7.47543 10.7608C7.12243 10.7608 6.80743 10.5108 6.73943 10.1508C6.66143 9.74478 6.92843 9.34678 7.33543 9.26878C7.73643 9.19078 8.13343 9.45278 8.21143 9.86078L8.21343 9.87078C8.29043 10.2778 8.02343 10.6698 7.61643 10.7478ZM6.74143 13.8178C6.65943 13.4118 6.92243 13.0118 7.32843 12.9308C7.73343 12.8498 8.12843 13.1078 8.20943 13.5138L8.21143 13.5238C8.29343 13.9298 8.02943 14.3248 7.62343 14.4058C7.57443 14.4158 7.52443 14.4208 7.47543 14.4208C7.12543 14.4208 6.81243 14.1738 6.74143 13.8178ZM7.61643 17.9978C7.56943 18.0068 7.52243 18.0108 7.47543 18.0108C7.12243 18.0108 6.80743 17.7608 6.73943 17.4008C6.66143 16.9948 6.92843 16.5968 7.33543 16.5188C7.73643 16.4378 8.13343 16.7038 8.21143 17.1108L8.21343 17.1208C8.29043 17.5278 8.02343 17.9198 7.61643 17.9978ZM15.7774 8.80802C15.7774 8.80531 15.7764 8.8027 15.7744 8.80078C15.7725 8.79886 15.7714 8.79626 15.7714 8.79354V4.63078C15.7714 3.62178 14.9504 2.80078 13.9404 2.80078H10.6034C9.59343 2.80078 8.77143 3.62178 8.77143 4.63078V5.40078C8.77143 5.56647 8.63712 5.70078 8.47143 5.70078H5.00043C3.99043 5.70078 3.16943 6.52178 3.16943 7.53078V19.9708C3.16943 20.9798 3.99043 21.8008 5.00043 21.8008H15.4774C15.6431 21.8008 15.7774 21.6665 15.7774 21.5008V8.80802Z" fill="#737373"/>
</svg>
