<svg width="24" height="24" viewBox="0 0 24 24" fill="none" xmlns="http://www.w3.org/2000/svg">
<path fill-rule="evenodd" clip-rule="evenodd" d="M19.9142 14.434L19.2042 13.724C18.5962 13.217 17.7842 13.318 17.2772 13.826L14.0322 17.375C13.6272 17.781 13.4242 18.186 13.4242 18.592L13.3222 19.403C13.2212 19.809 13.4242 20.113 13.6272 20.417C13.8292 20.62 14.1342 20.721 14.4382 20.721H14.6412L15.4522 20.62C15.9592 20.519 16.3652 20.316 16.8722 19.809L20.0152 16.361C20.4212 15.854 20.4212 14.941 19.9142 14.434Z" fill="#737373"/>
<path fill-rule="evenodd" clip-rule="evenodd" d="M11.0917 3.17773C13.6687 3.17773 15.7567 5.26573 15.7567 7.84273C15.7567 10.4197 13.6687 12.5077 11.0917 12.5077C8.51476 12.5077 6.42676 10.4197 6.42676 7.84273C6.42676 5.26573 8.51476 3.17773 11.0917 3.17773Z" fill="#737373"/>
<path fill-rule="evenodd" clip-rule="evenodd" d="M10.0775 14.5352C8.65743 14.5352 7.33943 14.7382 6.32543 15.0422C5.71643 15.2452 5.10843 15.5492 4.70243 15.9552C4.29743 16.3602 3.99243 16.9692 3.99243 17.6792C3.99243 18.3892 4.19543 18.8962 4.70243 19.4032C5.10843 19.8082 5.71643 20.1132 6.32543 20.3152C7.33943 20.6202 8.65743 20.8222 10.0775 20.8222C10.6855 20.8222 11.0915 20.4172 11.0915 19.8082V15.5492C11.0915 14.9412 10.6855 14.5352 10.0775 14.5352Z" fill="#737373"/>
</svg>
