<svg width="24" height="24" viewBox="0 0 24 24" fill="none" xmlns="http://www.w3.org/2000/svg">
<path fill-rule="evenodd" clip-rule="evenodd" d="M6.57276 6C6.98697 5.99999 7.32277 6.33577 7.32278 6.74998L7.32301 16.235L8.86665 14.6914C9.15955 14.3985 9.6344 14.3985 9.9273 14.6914C10.2202 14.9843 10.2202 15.4591 9.9273 15.752L7.10339 18.5759C6.96272 18.7166 6.77193 18.7956 6.573 18.7956C6.37407 18.7956 6.18329 18.7166 6.04265 18.5759L3.21959 15.7519C2.92674 15.459 2.92681 14.9841 3.21975 14.6913C3.51269 14.3984 3.98756 14.3985 4.28041 14.6914L5.82301 16.2345L5.82278 6.75002C5.82277 6.3358 6.15854 6.00001 6.57276 6Z" fill="#737373"/>
<path fill-rule="evenodd" clip-rule="evenodd" d="M10.5293 6.75C10.5293 6.33578 10.8651 6 11.2793 6H19.7502C20.1644 6 20.5002 6.33578 20.5002 6.75C20.5002 7.16421 20.1644 7.5 19.7502 7.5H11.2793C10.8651 7.5 10.5293 7.16421 10.5293 6.75ZM12.4111 12.3981C12.4111 11.9839 12.7469 11.6481 13.1611 11.6481H19.75C20.1642 11.6481 20.5 11.9839 20.5 12.3981C20.5 12.8123 20.1642 13.1481 19.75 13.1481H13.1611C12.7469 13.1481 12.4111 12.8123 12.4111 12.3981ZM12.4111 18.0453C12.4111 17.6311 12.7469 17.2953 13.1611 17.2953H19.75C20.1642 17.2953 20.5 17.6311 20.5 18.0453C20.5 18.4595 20.1642 18.7953 19.75 18.7953H13.1611C12.7469 18.7953 12.4111 18.4595 12.4111 18.0453Z" fill="#737373"/>
</svg>
