<svg width="24" height="24" viewBox="0 0 24 24" fill="none" xmlns="http://www.w3.org/2000/svg">
<path d="M16.2149 21.7551H7.78488C4.47488 21.7551 2.25488 19.4351 2.25488 15.9751V8.02511C2.25488 4.57511 4.47488 2.24512 7.78488 2.24512H12.3849C12.7949 2.24512 13.1349 2.58512 13.1349 2.99512C13.1349 3.40512 12.7949 3.74512 12.3849 3.74512H7.78488C5.33488 3.74512 3.75488 5.42511 3.75488 8.02511V15.9751C3.75488 18.5751 5.33488 20.2551 7.78488 20.2551H16.2149C18.6649 20.2551 20.2449 18.5751 20.2449 15.9751V10.9451C20.2449 10.5351 20.5849 10.1951 20.9949 10.1951C21.4049 10.1951 21.7449 10.5351 21.7449 10.9451V15.9751C21.7449 19.4251 19.5249 21.7551 16.2149 21.7551Z" fill="#737373"/>
<path d="M13.8152 9.5249C13.4052 9.5249 13.0652 9.1849 13.0652 8.7749C13.0652 8.3649 13.3952 8.0249 13.8152 8.0249C14.2252 8.0249 14.5652 8.3649 14.5652 8.7749C14.5652 9.1849 14.2252 9.5249 13.8152 9.5249Z" fill="#737373"/>
<path d="M16.405 17.965H7.58504C7.05504 17.965 6.56504 17.675 6.30504 17.215C6.04504 16.755 6.06504 16.185 6.33504 15.735L9.02504 11.365C9.28504 10.945 9.73505 10.685 10.225 10.665C10.725 10.645 11.185 10.875 11.465 11.275L13.145 13.635L13.695 12.925C13.995 12.565 14.465 12.385 14.925 12.415C15.395 12.455 15.815 12.715 16.055 13.105L17.655 15.725C17.935 16.175 17.945 16.745 17.685 17.205C17.425 17.665 16.935 17.955 16.405 17.955V17.965ZM10.245 12.155L7.63506 16.485L16.405 16.465L14.775 13.905L14.235 14.615C13.945 14.955 13.505 15.145 13.055 15.125C12.605 15.105 12.185 14.885 11.925 14.515L10.245 12.155Z" fill="#737373"/>
<path d="M18.1151 9.52487C17.8051 9.52487 17.5251 9.32488 17.4151 9.03488L17.3051 8.7349C16.9551 7.7949 16.2151 7.0549 15.2851 6.7049L14.9751 6.59488C14.6851 6.48488 14.4851 6.2049 14.4851 5.8949C14.4851 5.5849 14.6851 5.30489 14.9751 5.19489L15.2751 5.08487C16.2151 4.73487 16.9551 3.99487 17.2951 3.05487L17.4051 2.75488C17.5151 2.46488 17.7951 2.26489 18.1051 2.26489C18.4151 2.26489 18.6951 2.46488 18.8051 2.75488L18.9151 3.05487C19.2651 3.99487 20.0051 4.73487 20.9351 5.08487L21.2351 5.19489C21.5251 5.30489 21.7251 5.5849 21.7251 5.8949C21.7251 6.2049 21.5351 6.48488 21.2351 6.59488L20.9351 6.7049C19.9951 7.0549 19.2551 7.7949 18.9051 8.7349L18.7951 9.03488C18.6851 9.32488 18.4051 9.52487 18.0951 9.52487H18.1151ZM16.9151 5.8949C17.3751 6.2249 17.7851 6.62488 18.1051 7.09488C18.4351 6.63488 18.8351 6.2249 19.2951 5.8949C18.8351 5.5649 18.4251 5.16489 18.1051 4.69489C17.7751 5.15489 17.3751 5.5649 16.9151 5.8949Z" fill="#737373"/>
</svg>
