<svg width="24" height="24" viewBox="0 0 24 24" fill="none" xmlns="http://www.w3.org/2000/svg">
<path fill-rule="evenodd" clip-rule="evenodd" d="M15.9538 7.84273C16.0548 5.30773 13.9258 3.17773 11.2888 3.17773C8.65178 3.17773 6.62378 5.30773 6.62378 7.84273C6.62378 10.4797 8.75378 12.5077 11.2888 12.5077C13.9258 12.5077 15.9538 10.3777 15.9538 7.84273Z" fill="#737373"/>
<path fill-rule="evenodd" clip-rule="evenodd" d="M10.2737 14.5371C8.85372 14.5371 7.53572 14.7401 6.52172 15.0441C5.91272 15.2471 5.30472 15.5511 4.89872 15.9571C4.49372 16.3621 4.18872 16.9711 4.18872 17.6811C4.18872 18.3911 4.39172 18.8981 4.89872 19.4051C5.30472 19.8101 5.91272 20.1151 6.52172 20.3171C7.53572 20.6221 8.85372 20.8241 10.2737 20.8241C10.8817 20.8241 11.2877 20.4191 11.2877 19.8101V15.5511C11.2877 14.9431 10.8817 14.5371 10.2737 14.5371Z" fill="#737373"/>
<path fill-rule="evenodd" clip-rule="evenodd" d="M17.187 20.4999C16.486 20.1339 14.499 18.2949 14.499 16.4969C14.499 15.0189 15.706 13.8169 17.187 13.8169C18.668 13.8169 19.875 15.0189 19.875 16.4969C19.875 18.2949 17.888 20.1339 17.187 20.4999ZM17.187 12.3169C14.878 12.3169 13 14.1919 13 16.4969C13 19.2199 16.109 22.0369 17.187 22.0369C18.265 22.0369 21.374 19.2199 21.374 16.4969C21.374 14.1919 19.496 12.3169 17.187 12.3169Z" fill="#737373"/>
<path fill-rule="evenodd" clip-rule="evenodd" d="M17.2153 15.4265C16.6573 15.4265 16.2043 15.8795 16.2043 16.4365C16.2043 16.9935 16.6573 17.4465 17.2153 17.4465C17.7743 17.4465 18.2283 16.9935 18.2283 16.4365C18.2283 15.8795 17.7743 15.4265 17.2153 15.4265Z" fill="#737373"/>
</svg>
