<svg width="24" height="24" viewBox="0 0 24 24" fill="none" xmlns="http://www.w3.org/2000/svg">
<path fill-rule="evenodd" clip-rule="evenodd" d="M3.75 7.75C4.16422 7.75 4.5 8.08579 4.5 8.5V11.9624C4.5 12.2111 4.71089 12.6241 5.47701 13.0195C6.20485 13.3951 7.2625 13.6496 8.47174 13.6496C8.88595 13.6496 9.22174 13.9854 9.22174 14.3996C9.22174 14.8139 8.88595 15.1496 8.47174 15.1496C7.07347 15.1496 5.77024 14.8588 4.7891 14.3525C3.84623 13.8659 3 13.0603 3 11.9624L3 8.5C3 8.08579 3.33579 7.75 3.75 7.75Z" fill="#737373"/>
<path fill-rule="evenodd" clip-rule="evenodd" d="M5.47709 7.13046C4.71076 7.52606 4.5 7.93912 4.5 8.18724C4.5 8.43594 4.71089 8.84897 5.47701 9.24435C6.20485 9.61998 7.2625 9.87449 8.47174 9.87449C8.88595 9.87449 9.22174 10.2103 9.22174 10.6245C9.22174 11.0387 8.88595 11.3745 8.47174 11.3745C7.07347 11.3745 5.77024 11.0837 4.7891 10.5773C3.84623 10.0907 3 9.28511 3 8.18724C3 7.08978 3.84635 6.28421 4.78902 5.79759C5.77013 5.29111 7.07336 5 8.47174 5C9.87014 5 11.1733 5.29111 12.1544 5.79759C13.0971 6.28421 13.9434 7.08978 13.9434 8.18724C13.9434 8.60146 13.6076 8.93724 13.1934 8.93724C12.7792 8.93724 12.4434 8.60146 12.4434 8.18724C12.4434 7.93912 12.2327 7.52606 11.4664 7.13046C10.7385 6.75471 9.68084 6.5 8.47174 6.5C7.26261 6.5 6.20497 6.75471 5.47709 7.13046Z" fill="#737373"/>
<path fill-rule="evenodd" clip-rule="evenodd" d="M10.6055 12.25C11.0197 12.25 11.3555 12.5858 11.3555 13V16.564C11.3555 16.8128 11.5664 17.2258 12.3321 17.6211C13.0597 17.9967 14.1171 18.2512 15.3263 18.2512C16.5355 18.2512 17.5932 17.9967 18.321 17.6211C19.0871 17.2257 19.298 16.8127 19.298 16.564V13C19.298 12.5858 19.6338 12.25 20.048 12.25C20.4622 12.25 20.798 12.5858 20.798 13V16.564C20.798 17.6618 19.9518 18.4674 19.0089 18.954C18.0278 19.4604 16.7246 19.7512 15.3263 19.7512C13.928 19.7512 12.625 19.4604 11.6441 18.954C10.7013 18.4673 9.85547 17.6617 9.85547 16.564V13C9.85547 12.5858 10.1913 12.25 10.6055 12.25Z" fill="#737373"/>
<path fill-rule="evenodd" clip-rule="evenodd" d="M12.3322 11.732C11.5663 12.1275 11.3555 12.5405 11.3555 12.7888C11.3555 13.0371 11.5663 13.4501 12.3322 13.8456C13.0598 14.2213 14.1172 14.4761 15.3263 14.4761C16.5354 14.4761 17.5931 14.2213 18.3209 13.8456C19.0873 13.45 19.298 13.0369 19.298 12.7888C19.298 12.5407 19.0873 12.1276 18.3209 11.732C17.5931 11.3563 16.5354 11.1016 15.3263 11.1016C14.1172 11.1016 13.0598 11.3563 12.3322 11.732ZM11.644 10.3992C12.6249 9.89268 13.9279 9.60156 15.3263 9.60156C16.7247 9.60156 18.0279 9.89268 19.009 10.3992C19.9517 10.8858 20.798 11.6913 20.798 12.7888C20.798 13.8863 19.9517 14.6918 19.009 15.1785C18.0279 15.6849 16.7247 15.9761 15.3263 15.9761C13.9279 15.9761 12.6249 15.6849 11.644 15.1784C10.7014 14.6917 9.85547 13.8861 9.85547 12.7888C9.85547 11.6915 10.7014 10.8859 11.644 10.3992Z" fill="#737373"/>
</svg>
