<svg width="24" height="24" viewBox="0 0 24 24" fill="none" xmlns="http://www.w3.org/2000/svg">
<path fill-rule="evenodd" clip-rule="evenodd" d="M10.4605 9.51911L12.3245 8.90411C12.4745 8.85411 12.6375 8.85311 12.7915 8.90311L14.6395 9.50311L14.6261 2.70124C14.6258 2.5355 14.4911 2.40144 14.3254 2.40183L10.7522 2.4104C10.5866 2.41079 10.4527 2.5452 10.4529 2.71073L10.4605 9.51911Z" fill="#737373"/>
<path fill-rule="evenodd" clip-rule="evenodd" d="M22.0413 12.1435C22.0418 12.3542 21.8303 12.5002 21.6289 12.4383C21.017 12.2503 20.3679 12.1509 19.6922 12.1509C15.9922 12.1509 12.9822 15.1609 12.9822 18.8609C12.9822 19.6025 13.1045 20.3101 13.3265 20.9726C13.3942 21.1747 13.249 21.3913 13.0358 21.3918L8.36225 21.4009H8.33225C6.77225 21.4009 5.45225 20.8609 4.49225 19.8409C3.56225 18.8409 3.07225 17.4809 3.07225 15.8909L3.05225 7.95088V7.93088C3.05225 4.64088 5.16225 2.43088 8.31225 2.42088L8.64793 2.41563C8.81529 2.41302 8.95241 2.54785 8.95262 2.71523L8.96225 10.5609C8.96225 10.8009 9.08225 11.0209 9.27225 11.1609C9.40225 11.2609 9.55225 11.3109 9.71225 11.3109C9.79225 11.3109 9.87225 11.2909 9.94225 11.2709L12.5622 10.4009L15.1622 11.2509C15.3922 11.3209 15.6422 11.2809 15.8322 11.1409C16.0222 11.0009 16.1422 10.7709 16.1422 10.5309L16.123 2.70162C16.1226 2.53564 16.257 2.40088 16.423 2.40088H16.7622C18.2522 2.40088 19.5322 2.89088 20.4822 3.83088C21.4722 4.82088 22.0222 6.26088 22.0322 7.90088L22.0413 12.1435Z" fill="#737373"/>
<path fill-rule="evenodd" clip-rule="evenodd" d="M19.2381 21.5994C18.8241 21.5994 18.4881 21.2634 18.4881 20.8494V18.9394H16.5781C16.1641 18.9394 15.8281 18.6034 15.8281 18.1894C15.8281 17.7754 16.1641 17.4394 16.5781 17.4394H18.4881V15.5294C18.4881 15.1154 18.8241 14.7794 19.2381 14.7794C19.6521 14.7794 19.9881 15.1154 19.9881 15.5294V17.4394H21.8971C22.3111 17.4394 22.6471 17.7754 22.6471 18.1894C22.6471 18.6034 22.3111 18.9394 21.8971 18.9394H19.9881V20.8494C19.9881 21.2634 19.6521 21.5994 19.2381 21.5994Z" fill="#737373"/>
</svg>
