<svg width="24" height="24" viewBox="0 0 24 24" fill="none" xmlns="http://www.w3.org/2000/svg">
<path d="M21.0997 9.21997C20.6847 9.21997 20.3497 8.87997 20.3497 8.46997V6.88989C20.3497 5.15989 18.9427 3.75 17.2067 3.75H15.9497C15.5347 3.75 15.1997 3.41 15.1997 3C15.1997 2.59 15.5347 2.25 15.9497 2.25H17.2067C19.7707 2.25 21.8497 4.32989 21.8497 6.88989V8.46997C21.8497 8.87997 21.5137 9.21997 21.0997 9.21997Z" fill="#737373"/>
<path d="M3.09961 9.21997C2.68461 9.21997 2.34961 8.87997 2.34961 8.46997V6.88989C2.34961 4.32989 4.42761 2.25 6.99161 2.25H8.28162C8.69562 2.25 9.03162 2.59 9.03162 3C9.03162 3.41 8.69562 3.75 8.28162 3.75H6.99161C5.25561 3.75 3.84961 5.15989 3.84961 6.88989V8.46997C3.84961 8.87997 3.51361 9.21997 3.09961 9.21997Z" fill="#737373"/>
<path d="M3.09961 14.78C3.51361 14.78 3.84961 15.12 3.84961 15.53V17.1101C3.84961 18.8401 5.25561 20.25 6.99161 20.25H8.2496C8.6636 20.25 8.9996 20.59 8.9996 21C8.9996 21.41 8.6636 21.75 8.2496 21.75H6.99161C4.42761 21.75 2.34961 19.6701 2.34961 17.1101V15.53C2.34961 15.12 2.68461 14.78 3.09961 14.78Z" fill="#737373"/>
<path d="M21.0976 14.78C21.5116 14.78 21.8476 15.12 21.8476 15.53V17.1101C21.8476 19.6701 19.7685 21.75 17.2045 21.75H15.9146C15.5006 21.75 15.1646 21.41 15.1646 21C15.1646 20.59 15.5006 20.25 15.9146 20.25H17.2045C18.9405 20.25 20.3476 18.8401 20.3476 17.1101V15.53C20.3476 15.12 20.6826 14.78 21.0976 14.78Z" fill="#737373"/>
<path fill-rule="evenodd" clip-rule="evenodd" d="M8.03857 8.49002H8.03958L11.0866 6.73001C11.7126 6.36001 12.4836 6.36001 13.1096 6.73001L16.1566 8.49002C16.7826 8.85002 17.1676 9.52002 17.1676 10.24V13.76C17.1676 14.4797 16.7829 15.1495 16.1564 15.5096L13.1086 17.27C12.7987 17.4482 12.4535 17.5382 12.1081 17.54H12.0996H12.0934C11.746 17.5393 11.3988 17.4493 11.0876 17.27L8.03857 15.51C7.41146 15.1498 7.02759 14.4794 7.02759 13.76V10.24C7.02759 9.8933 7.11687 9.55818 7.27935 9.26367C7.28797 9.24556 7.29738 9.22766 7.30759 9.20999C7.32237 9.18428 7.33845 9.15979 7.35567 9.13655C7.5264 8.87448 7.75834 8.65118 8.03857 8.49002ZM11.3496 12.4162L8.52759 10.7868V13.76C8.52759 13.94 8.62757 14.12 8.78857 14.21H8.78958L11.3496 15.6887V12.4162ZM15.6676 10.7839L12.8496 12.411V15.6865L15.4076 14.21C15.5686 14.12 15.6676 13.94 15.6676 13.76V10.7839ZM14.9038 9.49136L12.3586 8.03006C12.1966 7.93006 11.9986 7.93006 11.8366 8.03006L9.28932 9.49304L12.0951 11.1132L14.9038 9.49136Z" fill="#737373"/>
</svg>
