<svg width="24" height="24" viewBox="0 0 24 24" fill="none" xmlns="http://www.w3.org/2000/svg">
<path fill-rule="evenodd" clip-rule="evenodd" d="M13.9756 2.00024C14.0185 2.00024 14.0606 2.00386 14.1016 2.0108L14.2385 2.01164C14.4425 2.01164 14.6375 2.09464 14.7795 2.24164L19.8445 7.51864C19.9785 7.65764 20.0536 7.84464 20.0536 8.03764V17.2036C20.0715 19.7126 18.1175 21.7626 15.6045 21.8646L7.58546 21.8656H7.47646C5.02652 21.8103 3.06163 19.8289 3.00177 17.4028L3.00146 6.49064C3.05946 4.00964 5.10846 2.01164 7.57147 2.01164L13.8495 2.0108C13.8905 2.00386 13.9326 2.00024 13.9756 2.00024ZM13.2255 3.51124L7.57346 3.51164C5.91646 3.51164 4.54046 4.85364 4.50146 6.50864V17.2036C4.46446 18.9166 5.81446 20.3276 7.51046 20.3656H15.5745C17.2435 20.2966 18.5655 18.9096 18.5535 17.2096L18.5535 8.98324L16.5436 8.98424C14.7136 8.97924 13.2256 7.48724 13.2256 5.65924L13.2255 3.51124ZM13.7888 14.6083C14.2028 14.6083 14.5388 14.9443 14.5388 15.3583C14.5388 15.7723 14.2028 16.1083 13.7888 16.1083H8.38876C7.97476 16.1083 7.63876 15.7723 7.63876 15.3583C7.63876 14.9443 7.97476 14.6083 8.38876 14.6083H13.7888ZM11.7439 10.8563C12.1579 10.8563 12.4939 11.1923 12.4939 11.6063C12.4939 12.0203 12.1579 12.3563 11.7439 12.3563H8.38787C7.97387 12.3563 7.63787 12.0203 7.63787 11.6063C7.63787 11.1923 7.97387 10.8563 8.38787 10.8563H11.7439ZM14.7255 4.35224L14.7256 5.65924C14.7256 6.66324 15.5426 7.48124 16.5456 7.48424L17.7315 7.48324L14.7255 4.35224Z" fill="#737373"/>
</svg>
