<svg width="24" height="24" viewBox="0 0 24 24" fill="none" xmlns="http://www.w3.org/2000/svg">
<path fill-rule="evenodd" clip-rule="evenodd" d="M20.0229 13.3362C20.0229 8.69178 16.2581 4.92578 11.6125 4.92578C6.96789 4.92578 3.20309 8.69184 3.20309 13.3362C3.20309 17.9802 6.96749 21.7484 11.6122 21.7486C11.6123 21.7486 11.612 21.7486 11.6122 21.7486L15.5806 21.7506C15.9948 21.7508 16.3308 21.4151 16.331 21.0009C16.3312 20.5867 15.9956 20.2508 15.5813 20.2506L11.6129 20.2486C7.79719 20.2486 4.70309 17.1527 4.70309 13.3362C4.70309 9.52002 7.79659 6.42578 11.6125 6.42578C15.4295 6.42578 18.5229 9.52008 18.5229 13.3362C18.5229 13.7504 18.8587 14.0862 19.2729 14.0862C19.6872 14.0862 20.0229 13.7504 20.0229 13.3362Z" fill="#737373"/>
<path fill-rule="evenodd" clip-rule="evenodd" d="M18.8149 18.4668C18.8149 18.0526 18.4792 17.7168 18.0649 17.7168H13.7731C13.3589 17.7168 13.0231 18.0526 13.0231 18.4668C13.0231 18.881 13.3589 19.2168 13.7731 19.2168H18.0649C18.4792 19.2168 18.8149 18.881 18.8149 18.4668Z" fill="#737373"/>
<path fill-rule="evenodd" clip-rule="evenodd" d="M21.2974 15.9336C21.2974 15.5194 20.9616 15.1836 20.5474 15.1836H16.2555C15.8413 15.1836 15.5055 15.5194 15.5055 15.9336C15.5055 16.3478 15.8413 16.6836 16.2555 16.6836H20.5474C20.9616 16.6836 21.2974 16.3478 21.2974 15.9336Z" fill="#737373"/>
<path fill-rule="evenodd" clip-rule="evenodd" d="M14.4653 3C14.4653 2.58579 14.1296 2.25 13.7153 2.25H9.50853C9.09433 2.25 8.75853 2.58579 8.75853 3C8.75853 3.41421 9.09433 3.75 9.50853 3.75H13.7153C14.1296 3.75 14.4653 3.41421 14.4653 3Z" fill="#737373"/>
<path fill-rule="evenodd" clip-rule="evenodd" d="M8.15246 9.83686C7.85956 10.1298 7.85956 10.6046 8.15246 10.8975L11.0932 13.8382C11.3861 14.1311 11.861 14.1311 12.1539 13.8382C12.4468 13.5453 12.4468 13.0704 12.1539 12.7775L9.21316 9.83686C8.92026 9.54396 8.44536 9.54396 8.15246 9.83686Z" fill="#737373"/>
</svg>
