<svg width="24" height="24" viewBox="0 0 24 24" fill="none" xmlns="http://www.w3.org/2000/svg">
<path fill-rule="evenodd" clip-rule="evenodd" d="M12.787 12.966C12.787 13.38 12.451 13.716 12.037 13.716C11.623 13.716 11.287 13.38 11.287 12.966V10.152C11.287 9.73796 11.623 9.40196 12.037 9.40196C12.451 9.40196 12.787 9.73796 12.787 10.152V12.966ZM12.035 16.563C11.621 16.563 11.285 16.274 11.285 15.86V15.767C11.285 15.353 11.621 15.017 12.035 15.017C12.449 15.017 12.785 15.353 12.785 15.767C12.785 16.181 12.449 16.563 12.035 16.563ZM19.773 7.07496C18.082 4.92596 15.559 3.60396 12.854 3.44596C10.147 3.28696 7.49295 4.29896 5.57895 6.21996C2.77295 9.03396 2.00795 13.356 3.66495 16.949C3.77395 17.223 4.10695 17.845 4.65495 18.798C4.74795 18.959 4.73895 19.154 4.63095 19.306C4.40895 19.62 4.12695 20.022 3.90995 20.351C3.62495 20.776 3.59895 21.319 3.83895 21.768C4.07895 22.214 4.53995 22.491 5.04595 22.491H5.04795L5.65895 22.49C8.02995 22.489 11.446 22.487 12.265 22.491H12.298C15.1 22.491 17.749 21.254 19.57 19.094C22.468 15.657 22.554 10.602 19.773 7.07496Z" fill="#737373"/>
</svg>
