<svg width="24" height="24" viewBox="0 0 24 24" fill="none" xmlns="http://www.w3.org/2000/svg">
<path fill-rule="evenodd" clip-rule="evenodd" d="M9.78029 2.25133C9.79514 2.25044 9.81003 2.25 9.82491 2.25H14.6752C14.6901 2.25 14.7049 2.25044 14.7198 2.25133C15.9309 2.32349 16.9105 2.82453 17.5558 3.6391C18.193 4.44358 18.4527 5.48761 18.3671 6.5678L18.3661 6.57971C18.2841 7.44031 17.8454 8.1953 17.2336 8.94349C16.6266 9.68575 15.775 10.5073 14.7541 11.4875C14.5109 11.7443 14.4726 11.9119 14.4725 11.9998C14.4725 12.0874 14.5105 12.2548 14.7539 12.5113C15.775 13.4917 16.6266 14.3135 17.2337 15.0561C17.8455 15.8046 18.284 16.5598 18.366 17.4203L18.3671 17.4322C18.4527 18.5124 18.193 19.5564 17.5558 20.3609C16.9105 21.1755 15.9309 21.6765 14.7198 21.7487C14.7049 21.7496 14.6901 21.75 14.6752 21.75H9.82491C9.81003 21.75 9.79514 21.7496 9.78029 21.7487C8.56957 21.6765 7.59009 21.1754 6.94475 20.361C6.30738 19.5566 6.04741 18.5126 6.13304 17.4322L6.13399 17.4203C6.21601 16.5598 6.65462 15.8046 7.26642 15.0561C7.87345 14.3135 8.72509 13.4917 9.74619 12.5113C9.98976 12.2545 10.0279 12.0871 10.0279 11.9995C10.0279 11.9119 9.98976 11.7445 9.74619 11.4877C8.72516 10.5074 7.87351 9.6858 7.2665 8.94349C6.65469 8.1953 6.2161 7.4403 6.13408 6.5797L6.13295 6.56781C6.04732 5.48746 6.30738 4.44343 6.94475 3.63903C7.59009 2.82458 8.56957 2.3235 9.78029 2.25133ZM9.84832 3.75C9.03027 3.80371 8.47082 4.12837 8.12042 4.57059C7.76001 5.02545 7.56811 5.67261 7.62786 6.44301C7.66985 6.86724 7.8928 7.33981 8.4277 7.99395C8.96745 8.65402 9.74863 9.41058 10.7968 10.4169C10.8041 10.4239 10.8112 10.4311 10.8182 10.4383C11.2334 10.8705 11.5279 11.394 11.5279 11.9995C11.5279 12.605 11.2334 13.1285 10.8182 13.5607C10.8112 13.568 10.8041 13.5751 10.7968 13.5821C9.7487 14.5884 8.96751 15.3452 8.42778 16.0055C7.89287 16.6598 7.66986 17.1327 7.62786 17.557C7.56811 18.3274 7.76001 18.9746 8.12042 19.4294C8.47082 19.8716 9.03026 20.1963 9.84831 20.25H14.6518C15.4704 20.1963 16.0298 19.8716 16.38 19.4295C16.7402 18.9747 16.932 18.3275 16.8722 17.557C16.8302 17.1327 16.6072 16.6598 16.0723 16.0055C15.5326 15.3452 14.7514 14.5884 13.7033 13.5821C13.696 13.5751 13.6889 13.568 13.6819 13.5607C13.2665 13.1283 12.9723 12.6047 12.9725 11.9993C12.9727 11.3941 13.267 10.8708 13.6815 10.4387C13.6887 10.4313 13.6959 10.4241 13.7033 10.4169C14.7515 9.41058 15.5326 8.65402 16.0724 7.99395C16.6073 7.33982 16.8302 6.86724 16.8722 6.44302C16.932 5.67245 16.7402 5.0253 16.38 4.57052C16.0298 4.12841 15.4704 3.80372 14.6518 3.75H9.84832Z" fill="#737373"/>
<path fill-rule="evenodd" clip-rule="evenodd" d="M9.64593 18.5778C9.21701 18.7829 8.7164 18.9099 8.08846 18.9099C7.47162 18.9099 6.97214 18.7893 6.54617 18.5828C6.17341 18.4022 6.01766 17.9536 6.19828 17.5809C6.37891 17.2081 6.82751 17.0523 7.20027 17.233C7.40479 17.3321 7.67784 17.4099 8.08846 17.4099C8.49966 17.4099 8.7784 17.3299 8.99896 17.2245C9.23541 17.1115 9.43219 16.9583 9.69954 16.7453C9.70596 16.7402 9.71243 16.735 9.71894 16.7298C9.96844 16.531 10.2854 16.2784 10.6881 16.086C11.1171 15.8809 11.6179 15.7539 12.246 15.7539C12.8741 15.7539 13.3749 15.8809 13.8039 16.086C14.2065 16.2783 14.5234 16.5309 14.7729 16.7297C14.7795 16.7349 14.786 16.7401 14.7925 16.7452C15.0598 16.9582 15.2567 17.1114 15.4933 17.2245C15.714 17.3299 15.993 17.4099 16.4045 17.4099C16.8125 17.4099 17.0898 17.3327 17.3086 17.2295C17.6833 17.0529 18.1302 17.2134 18.3068 17.5881C18.4835 17.9627 18.323 18.4096 17.9483 18.5863C17.5191 18.7886 17.0219 18.9099 16.4045 18.9099C15.7763 18.9099 15.2756 18.7829 14.8465 18.5779C14.4439 18.3855 14.127 18.133 13.8775 17.9341C13.871 17.9289 13.8644 17.9237 13.858 17.9186C13.5906 17.7056 13.3937 17.5524 13.1572 17.4394C12.9364 17.3339 12.6575 17.2539 12.246 17.2539C11.8345 17.2539 11.5555 17.3339 11.3348 17.4394C11.0983 17.5524 10.9014 17.7056 10.6342 17.9185C10.6277 17.9237 10.6211 17.9289 10.6145 17.9342C10.3651 18.133 10.0483 18.3854 9.64593 18.5778Z" fill="#737373"/>
</svg>
