<svg width="24" height="24" viewBox="0 0 24 24" fill="none" xmlns="http://www.w3.org/2000/svg">
<path fill-rule="evenodd" clip-rule="evenodd" d="M14.4 15.3291C13.879 15.3291 13.454 14.9051 13.454 14.3831C13.454 13.8611 13.879 13.4371 14.4 13.4371C14.921 13.4371 15.345 13.8611 15.345 14.3831C15.345 14.9051 14.921 15.3291 14.4 15.3291ZM9.625 15.2011C9.432 15.2011 9.241 15.1281 9.094 14.9811C8.801 14.6881 8.801 14.2141 9.094 13.9211L13.991 9.02413C14.284 8.73112 14.758 8.73112 15.051 9.02413C15.344 9.31713 15.344 9.79112 15.051 10.0841L10.155 14.9811C10.008 15.1281 9.817 15.2011 9.625 15.2011ZM9.633 8.67112C10.156 8.67112 10.581 9.09614 10.581 9.61812C10.581 10.1391 10.156 10.5631 9.633 10.5631C9.112 10.5631 8.687 10.1391 8.687 9.61812C8.687 9.09614 9.112 8.67112 9.633 8.67112ZM21.044 13.6621C20.953 13.5901 20.813 13.5151 20.291 13.2401C19.82 12.9921 19.539 12.5281 19.539 11.9971C19.539 11.4681 19.819 11.0061 20.345 10.7301C20.837 10.4721 20.957 10.4081 21.046 10.3361C21.328 10.1091 21.404 9.98314 21.476 9.62414C21.494 9.53814 21.5 9.39513 21.5 9.10913C21.5 7.97813 21.5 7.41113 21.352 6.89913C20.993 5.66313 20.04 4.71013 18.802 4.35012C18.292 4.20312 17.724 4.20313 16.593 4.20313H7.407C6.278 4.20313 5.712 4.20312 5.202 4.35012C3.962 4.71013 3.008 5.66413 2.649 6.90613C2.502 7.41712 2.503 7.98312 2.504 9.13713C2.504 9.40112 2.51 9.53512 2.527 9.62512C2.599 9.98112 2.675 10.1071 2.962 10.3381C3.047 10.4061 3.171 10.4741 3.71 10.7581C4.179 11.0051 4.46 11.4691 4.459 12.0391C4.442 12.5291 4.164 12.9791 3.733 13.2151C3.169 13.5251 3.032 13.6011 2.939 13.6761C2.657 13.9121 2.59 14.0241 2.521 14.3851C2.505 14.4671 2.5 14.6111 2.5 14.8971C2.5 16.0221 2.5 16.5861 2.646 17.0961C3.004 18.3371 3.96 19.2921 5.202 19.6501C5.71 19.7971 6.275 19.7971 7.401 19.7971H16.593C17.723 19.7971 18.291 19.7971 18.802 19.6491C20.04 19.2891 20.993 18.3361 21.351 17.1001C21.501 16.5871 21.5 16.0201 21.499 14.8911C21.499 14.6081 21.493 14.4671 21.476 14.3741C21.404 14.0191 21.328 13.8931 21.044 13.6621Z" fill="#737373"/>
<path fill-rule="evenodd" clip-rule="evenodd" d="M14.4 15.3291C13.879 15.3291 13.454 14.9051 13.454 14.3831C13.454 13.8611 13.879 13.4371 14.4 13.4371C14.921 13.4371 15.345 13.8611 15.345 14.3831C15.345 14.9051 14.921 15.3291 14.4 15.3291ZM9.625 15.2011C9.432 15.2011 9.241 15.1281 9.094 14.9811C8.801 14.6881 8.801 14.2141 9.094 13.9211L13.991 9.02413C14.284 8.73112 14.758 8.73112 15.051 9.02413C15.344 9.31713 15.344 9.79112 15.051 10.0841L10.155 14.9811C10.008 15.1281 9.817 15.2011 9.625 15.2011ZM9.633 8.67112C10.156 8.67112 10.581 9.09614 10.581 9.61812C10.581 10.1391 10.156 10.5631 9.633 10.5631C9.112 10.5631 8.687 10.1391 8.687 9.61812C8.687 9.09614 9.112 8.67112 9.633 8.67112ZM21.044 13.6621C20.953 13.5901 20.813 13.5151 20.291 13.2401C19.82 12.9921 19.539 12.5281 19.539 11.9971C19.539 11.4681 19.819 11.0061 20.345 10.7301C20.837 10.4721 20.957 10.4081 21.046 10.3361C21.328 10.1091 21.404 9.98314 21.476 9.62414C21.494 9.53814 21.5 9.39513 21.5 9.10913C21.5 7.97813 21.5 7.41113 21.352 6.89913C20.993 5.66313 20.04 4.71013 18.802 4.35012C18.292 4.20312 17.724 4.20313 16.593 4.20313H7.407C6.278 4.20313 5.712 4.20312 5.202 4.35012C3.962 4.71013 3.008 5.66413 2.649 6.90613C2.502 7.41712 2.503 7.98312 2.504 9.13713C2.504 9.40112 2.51 9.53512 2.527 9.62512C2.599 9.98112 2.675 10.1071 2.962 10.3381C3.047 10.4061 3.171 10.4741 3.71 10.7581C4.179 11.0051 4.46 11.4691 4.459 12.0391C4.442 12.5291 4.164 12.9791 3.733 13.2151C3.169 13.5251 3.032 13.6011 2.939 13.6761C2.657 13.9121 2.59 14.0241 2.521 14.3851C2.505 14.4671 2.5 14.6111 2.5 14.8971C2.5 16.0221 2.5 16.5861 2.646 17.0961C3.004 18.3371 3.96 19.2921 5.202 19.6501C5.71 19.7971 6.275 19.7971 7.401 19.7971H16.593C17.723 19.7971 18.291 19.7971 18.802 19.6491C20.04 19.2891 20.993 18.3361 21.351 17.1001C21.501 16.5871 21.5 16.0201 21.499 14.8911C21.499 14.6081 21.493 14.4671 21.476 14.3741C21.404 14.0191 21.328 13.8931 21.044 13.6621Z" fill="#737373"/>
</svg>
