<svg width="24" height="24" viewBox="0 0 24 24" fill="none" xmlns="http://www.w3.org/2000/svg">
<path fill-rule="evenodd" clip-rule="evenodd" d="M15.8263 9.21964C16.1192 9.51244 16.1193 9.98734 15.8264 10.2802L12.1048 14.0028C11.9641 14.1436 11.7732 14.2226 11.5742 14.2226C11.3751 14.2225 11.1843 14.1433 11.0437 14.0025L9.23781 12.1938C8.94514 11.9006 8.94552 11.4258 9.23864 11.1331C9.53177 10.8405 10.0066 10.8408 10.2993 11.1339L11.5748 12.4114L14.7656 9.21974C15.0585 8.92681 15.5333 8.92674 15.8263 9.21964Z" fill="#737373"/>
<path d="M12.2498 21.5C12.1762 21.5004 12.1031 21.4896 12.0328 21.468C11.7118 21.368 4.17676 19.015 4.17676 12.42C4.17676 10.585 4.15176 9.25902 4.13476 8.287C4.09076 5.853 4.08077 5.346 4.71777 4.71C5.47277 3.956 11.1658 2 12.2498 2C13.3948 2 19.0148 3.937 19.7838 4.712C20.4188 5.352 20.4087 5.858 20.3647 8.294C20.3477 9.26602 20.3237 10.594 20.3237 12.42C20.3237 19.014 12.7878 21.371 12.4678 21.468C12.3971 21.4894 12.3236 21.5002 12.2498 21.5ZM12.2498 3.5C10.0079 4.01043 7.83199 4.77644 5.76477 5.783C5.60477 5.943 5.59876 6.275 5.63476 8.259C5.65176 9.23802 5.67676 10.573 5.67676 12.42C5.67676 17.332 11.0868 19.541 12.2498 19.958C13.4128 19.541 18.8237 17.332 18.8237 12.42C18.8237 10.577 18.8488 9.24502 18.8658 8.268C18.9008 6.277 18.8947 5.945 18.7197 5.768C16.6564 4.76825 14.4857 4.00732 12.2498 3.5Z" fill="#737373"/>
</svg>
