<svg width="24" height="24" viewBox="0 0 24 24" fill="none" xmlns="http://www.w3.org/2000/svg">
<path fill-rule="evenodd" clip-rule="evenodd" d="M18.0001 16.26H16.0001C15.5801 16.26 15.2501 15.93 15.2501 15.51C15.2501 15.1 15.5801 14.76 16.0001 14.76H18.0001C18.4101 14.76 18.7501 15.1 18.7501 15.51C18.7501 15.93 18.4101 16.26 18.0001 16.26ZM19.1101 12.51L14.9001 12.5C13.4301 12.5 12.5101 13.54 12.5101 15.01L12.5001 18.98C12.4901 20.45 13.4101 21.5 14.8801 21.5L19.0901 21.51C20.5701 21.51 21.4901 20.48 21.4901 19L21.5001 15.03C21.5001 13.56 20.5901 12.52 19.1101 12.51Z" fill="#737373"/>
<path fill-rule="evenodd" clip-rule="evenodd" d="M8 16.26H6C5.59 16.26 5.25 15.93 5.25 15.51C5.25 15.1 5.59 14.76 6 14.76H8C8.42 14.76 8.75 15.1 8.75 15.51C8.75 15.93 8.42 16.26 8 16.26ZM9.12 12.51L4.91 12.5C3.43 12.5 2.51 13.54 2.51 15.01L2.5 18.98C2.5 20.45 3.42 21.5 4.88 21.5L9.1 21.51C10.57 21.51 11.49 20.48 11.5 19V15.03C11.51 13.56 10.59 12.52 9.12 12.51Z" fill="#737373"/>
<path fill-rule="evenodd" clip-rule="evenodd" d="M11.0001 4.75H13.0001C13.4101 4.75 13.7501 5.09 13.7501 5.5C13.7501 5.92 13.4101 6.25 13.0001 6.25H11.0001C10.5801 6.25 10.2501 5.92 10.2501 5.5C10.2501 5.09 10.5801 4.75 11.0001 4.75ZM9.88011 11.5L14.1001 11.51C15.5701 11.51 16.4901 10.47 16.4901 9L16.5001 5.03C16.5001 3.56 15.5901 2.51 14.1101 2.51L9.90011 2.5C8.43008 2.5 7.51008 3.53 7.51008 5.01L7.50008 8.98C7.49008 10.45 8.41008 11.49 9.88011 11.5Z" fill="#737373"/>
</svg>
