<svg width="24" height="24" viewBox="0 0 24 24" fill="none" xmlns="http://www.w3.org/2000/svg">
<path d="M11.5163 3.12109C14.1693 3.12109 16.3123 5.26409 16.2103 7.81509C16.2103 10.3661 14.1693 12.5091 11.5163 12.5091C8.96527 12.5091 6.82227 10.4681 6.82227 7.81509C6.82227 5.26409 8.86327 3.12109 11.5163 3.12109Z" fill="#737373"/>
<path d="M6.72102 15.0608C7.74102 14.7548 9.06702 14.5508 10.496 14.5508C11.108 14.5508 11.516 14.9588 11.516 15.5708V19.8568C11.516 20.4688 11.108 20.8768 10.496 20.8768C9.06702 20.8768 7.74102 20.6728 6.72102 20.3668C6.10802 20.1628 5.49602 19.8568 5.08802 19.4488C4.57802 18.9388 4.37402 18.4278 4.37402 17.7138C4.37402 16.9998 4.68002 16.3878 5.08802 15.9798C5.49602 15.5708 6.10802 15.2648 6.72102 15.0608Z" fill="#737373"/>
<path fill-rule="evenodd" clip-rule="evenodd" d="M17.7516 16.6406C17.1101 16.6406 16.5881 17.1611 16.5881 17.8006C16.5881 18.4431 17.1101 18.9656 17.7516 18.9656C18.3931 18.9656 18.9146 18.4431 18.9146 17.8006C18.9146 17.1611 18.3931 16.6406 17.7516 16.6406Z" fill="#737373"/>
<path fill-rule="evenodd" clip-rule="evenodd" d="M17.7516 19.7155C16.6966 19.7155 15.8381 18.8565 15.8381 17.8005C15.8381 16.747 16.6966 15.8905 17.7516 15.8905C18.8066 15.8905 19.6646 16.747 19.6646 17.8005C19.6646 18.8565 18.8066 19.7155 17.7516 19.7155ZM22.4801 17.702C21.4836 15.384 19.7151 14 17.7491 14C15.7841 14 14.0166 15.384 13.0206 17.702C12.9931 17.765 12.9931 17.836 13.0206 17.899C14.0161 20.216 15.7836 21.6 17.7486 21.601H17.7516C19.7166 21.6 21.4841 20.216 22.4801 17.899C22.5071 17.836 22.5071 17.765 22.4801 17.702Z" fill="#737373"/>
</svg>
