<svg width="24" height="24" viewBox="0 0 24 24" fill="none" xmlns="http://www.w3.org/2000/svg">
<path fill-rule="evenodd" clip-rule="evenodd" d="M16.8929 4.38218C16.7729 4.34673 16.6553 4.43633 16.6374 4.56017C16.4646 5.75631 15.4286 6.68062 14.1901 6.68062H9.81007C8.57168 6.68062 7.52694 5.75645 7.35293 4.56045C7.3349 4.43653 7.21714 4.34691 7.09711 4.38259C5.34578 4.90311 4.07007 6.53502 4.07007 8.46062V17.3606C4.07007 19.7006 5.97007 21.6106 8.32007 21.6106H15.6801C18.0301 21.6106 19.9301 19.7006 19.9301 17.3606V8.46062C19.9301 6.53451 18.6537 4.90225 16.8929 4.38218Z" fill="#737373"/>
<path fill-rule="evenodd" clip-rule="evenodd" d="M9.81003 5.48062H14.1901C14.8701 5.48062 15.4301 4.94063 15.4501 4.26064C15.4601 4.24064 15.4601 4.22063 15.4601 4.20063V3.66062C15.4601 2.96062 14.8901 2.39062 14.1901 2.39062H9.81003C9.11003 2.39062 8.53003 2.96062 8.53003 3.66062V4.20063C8.53003 4.22063 8.53003 4.23063 8.54003 4.25063C8.56003 4.94062 9.13003 5.48062 9.81003 5.48062Z" fill="#737373"/>
</svg>
