<svg width="24" height="24" viewBox="0 0 24 24" fill="none" xmlns="http://www.w3.org/2000/svg">
<path fill-rule="evenodd" clip-rule="evenodd" d="M21.3795 6.26044C21.0205 5.78044 20.4775 5.49444 19.8735 5.51344L6.35151 5.62244L5.72651 2.97644C5.64651 2.63744 5.34351 2.39844 4.99651 2.39844H2.99951C2.58551 2.39844 2.24951 2.73444 2.24951 3.14844C2.24951 3.56244 2.58551 3.89844 2.99951 3.89844H4.40251L6.91951 14.5534C7.23951 15.9054 8.46251 16.8544 9.82951 16.8544C9.92051 16.8544 10.0115 16.8504 10.1035 16.8414L17.0415 16.1984C18.3555 16.0764 19.4515 15.1824 19.8355 13.9214L21.6675 7.91844C21.8425 7.34444 21.7375 6.74044 21.3795 6.26044Z" fill="#737373"/>
<path fill-rule="evenodd" clip-rule="evenodd" d="M8.88359 19.1389C8.20459 19.1389 7.65259 19.6909 7.65259 20.3699C7.65259 21.0499 8.20459 21.6019 8.88359 21.6019C9.56259 21.6019 10.1156 21.0499 10.1156 20.3699C10.1156 19.6909 9.56259 19.1389 8.88359 19.1389Z" fill="#737373"/>
<path fill-rule="evenodd" clip-rule="evenodd" d="M18.0943 19.1389C17.4153 19.1389 16.8633 19.6909 16.8633 20.3699C16.8633 21.0499 17.4153 21.6019 18.0943 21.6019C18.7733 21.6019 19.3253 21.0499 19.3253 20.3699C19.3253 19.6909 18.7733 19.1389 18.0943 19.1389Z" fill="#737373"/>
</svg>
