<svg width="24" height="24" viewBox="0 0 24 24" fill="none" xmlns="http://www.w3.org/2000/svg">
<path fill-rule="evenodd" clip-rule="evenodd" d="M9 12.1207C9 11.7065 9.33579 11.3707 9.75 11.3707H21.791C22.2052 11.3707 22.541 11.7065 22.541 12.1207C22.541 12.5349 22.2052 12.8707 21.791 12.8707H9.75C9.33579 12.8707 9 12.5349 9 12.1207Z" fill="#737373"/>
<path fill-rule="evenodd" clip-rule="evenodd" d="M18.3328 8.67547C18.6251 8.38198 19.1 8.381 19.3935 8.67329L22.3215 11.5893C22.4628 11.73 22.5423 11.9213 22.5423 12.1207C22.5423 12.3202 22.4628 12.5114 22.3215 12.6521L19.3935 15.5681C19.1 15.8604 18.6251 15.8594 18.3328 15.566C18.0405 15.2725 18.0415 14.7976 18.335 14.5053L20.7294 12.1207L18.335 9.73613C18.0415 9.44384 18.0405 8.96897 18.3328 8.67547Z" fill="#737373"/>
<path fill-rule="evenodd" clip-rule="evenodd" d="M14.2883 4.45003C15.065 5.02558 15.4533 5.96649 15.613 7.69878C15.651 8.11125 16.0162 8.41479 16.4287 8.37677C16.8411 8.33875 17.1447 7.97356 17.1066 7.5611C16.9363 5.71339 16.4896 4.2143 15.1813 3.24485C13.927 2.31539 12.0372 1.99994 9.35979 1.99994C5.80997 1.99994 3.62742 2.55648 2.50736 4.37988C1.97352 5.24894 1.73761 6.32524 1.62297 7.55733C1.50879 8.78459 1.50879 10.2589 1.50879 11.9683V12.0315C1.50879 13.7409 1.50879 15.2153 1.62297 16.4425C1.73761 17.6746 1.97352 18.7509 2.50736 19.62C3.62742 21.4434 5.80997 21.9999 9.35979 21.9999C12.0372 21.9999 13.927 21.6845 15.1813 20.755C16.4896 19.7856 16.9363 18.2865 17.1066 16.4388C17.1447 16.0263 16.8411 15.6611 16.4287 15.6231C16.0162 15.5851 15.651 15.8886 15.613 16.3011C15.4533 18.0334 15.065 18.9743 14.2883 19.5498C13.4576 20.1654 12.0124 20.4999 9.35979 20.4999C5.80862 20.4999 4.44066 19.9015 3.78548 18.8349C3.43169 18.2589 3.22379 17.4565 3.11652 16.3036C3.00951 15.1534 3.00879 13.7471 3.00879 11.9999C3.00879 10.2527 3.00951 8.84648 3.11652 7.6963C3.22379 6.54339 3.43169 5.74094 3.78548 5.165C4.44066 4.0984 5.80862 3.49994 9.35979 3.49994C12.0124 3.49994 13.4576 3.83448 14.2883 4.45003Z" fill="#737373"/>
</svg>
