<svg width="24" height="24" viewBox="0 0 24 24" fill="none" xmlns="http://www.w3.org/2000/svg">
<path fill-rule="evenodd" clip-rule="evenodd" d="M10.2132 7.73298C10.3107 7.59784 10.4998 7.56816 10.6341 7.66687L15.6607 11.3616C15.7933 11.4591 15.8226 11.6454 15.7263 11.7789L11.3403 17.8577C10.8103 18.6177 10.0303 19.1777 9.13028 19.4377L7.47505 19.9263C7.47189 19.9273 7.46861 19.9277 7.46531 19.9277C7.46198 19.9277 7.45866 19.9282 7.45547 19.9292L6.89028 20.0977C5.96028 20.3677 5.03028 19.6677 5.02028 18.6977V18.3191C5.02028 18.3049 5.01919 18.2907 5.01752 18.2766C5.01028 18.2154 5.01028 18.1606 5.01028 18.0977L5.00028 16.3277C4.99028 15.4677 5.25028 14.6277 5.74028 13.9277L10.2132 7.73298Z" fill="#737373"/>
<path fill-rule="evenodd" clip-rule="evenodd" d="M17.7304 8.9977L16.9574 10.0718C16.8599 10.2072 16.671 10.2373 16.5365 10.1385C15.3609 9.27548 12.3644 7.07747 11.4982 6.44215C11.3653 6.34462 11.3384 6.15986 11.435 6.02625L12.2004 4.9677C12.9604 3.9177 14.4404 3.6877 15.4804 4.4477L17.2204 5.7177C18.2704 6.4777 18.5004 7.9477 17.7304 8.9977Z" fill="#737373"/>
</svg>
