<svg width="24" height="24" viewBox="0 0 24 24" fill="none" xmlns="http://www.w3.org/2000/svg">
<path fill-rule="evenodd" clip-rule="evenodd" d="M5.08 16.4299H5.25C5.5 15.5699 6.19 14.8799 7.06 14.6299V9.1499L4.71 10.1899C4.13 10.4399 3.75 11.0199 3.75 11.6599H5.41C5.82 11.6599 6.16 11.9999 6.16 12.4099C6.16 12.8299 5.82 13.1599 5.41 13.1599H3.75V15.0999C3.75 15.8399 4.35 16.4299 5.08 16.4299ZM8.93 17.4799C8.96 17.3799 8.97 17.2799 8.97 17.1799C8.97 16.8299 8.81 16.5099 8.56 16.2999C8.36 16.1199 8.1 16.0199 7.81 16.0199C7.52 16.0199 7.26 16.1199 7.06 16.2899C6.8 16.4999 6.64 16.8199 6.64 17.1799C6.64 17.8299 7.16 18.3499 7.81 18.3499C8.35 18.3499 8.8 17.9799 8.93 17.4799ZM18.12 17.1999V17.1799C18.12 16.5399 17.59 16.0199 16.95 16.0199C16.313 16.0199 15.787 16.5349 15.782 17.1709C15.782 17.1749 15.785 17.1789 15.785 17.1839C15.785 17.1889 15.782 17.1929 15.782 17.1979C15.782 17.2219 15.782 17.2459 15.79 17.2699C15.83 17.8799 16.34 18.3499 16.95 18.3499C17.58 18.3499 18.11 17.8399 18.12 17.1999ZM4.11 8.8199L7.06 7.5099V6.9799C7.06 5.4199 8.33 4.1499 9.89 4.1499H18.96C20.5 4.1499 21.75 5.4099 21.75 6.9499V15.0999C21.75 16.4499 20.8 17.5799 19.53 17.8599C19.23 18.9999 18.19 19.8499 16.95 19.8499C15.741 19.8499 14.713 19.0419 14.392 17.9339H10.358C10.037 19.0419 9.018 19.8499 7.81 19.8499C6.6 19.8499 5.57 19.0399 5.25 17.9299H5.08C3.52 17.9299 2.25 16.6599 2.25 15.0999V11.6599C2.25 10.4199 2.98 9.2999 4.11 8.8199Z" fill="#737373"/>
</svg>
