<svg width="24" height="24" viewBox="0 0 24 24" fill="none" xmlns="http://www.w3.org/2000/svg">
<path fill-rule="evenodd" clip-rule="evenodd" d="M18.7019 5.65088C19.4185 5.65088 20 6.23184 20 6.94894V15.1042C20 15.6424 19.6799 16.106 19.2197 16.315C18.8597 15.2682 17.8664 14.516 16.6974 14.516C15.485 14.516 14.4615 15.3251 14.1376 16.4328L10.1131 16.4333C9.8589 15.5633 9.1731 14.8774 8.3031 14.6229L8.3029 6.98007C8.3029 6.98006 8.3029 6.98008 8.3029 6.98007C8.3029 6.24621 8.8983 5.65088 9.6321 5.65088H18.7019ZM6.8031 14.6229C5.9334 14.8774 5.2477 15.5631 4.9933 16.4329H4.8292C4.8293 16.4329 4.8291 16.4329 4.8292 16.4329C4.0954 16.4328 3.5 15.8375 3.5 15.1037V13.1608H5.1515C5.5657 13.1608 5.9015 12.825 5.9015 12.4108C5.9015 11.9966 5.5657 11.6608 5.1515 11.6608H3.5C3.5 11.0217 3.8775 10.4423 4.4614 10.1848L6.803 9.15166L6.8031 14.6229ZM6.8029 7.51216V6.98009C6.8029 5.4178 8.0698 4.15088 9.6321 4.15088H18.7019C20.2465 4.15088 21.5 5.40295 21.5 6.94894V15.1042C21.5 16.4591 20.5471 17.5919 19.275 17.8687C18.9723 19.0091 17.933 19.8494 16.6974 19.8494C15.485 19.8494 14.4616 19.0404 14.1376 17.9328L10.1128 17.9333C9.7886 19.0407 8.7653 19.8494 7.5532 19.8494C6.3408 19.8494 5.3175 19.0405 4.9934 17.9329H4.8294C3.2671 17.9329 2 16.666 2 15.1037V11.6605C2 10.4277 2.7277 9.30997 3.8561 8.8124C3.8561 8.81237 3.856 8.81242 3.8561 8.8124L6.8029 7.51216ZM8.7195 17.2131C8.7034 17.8434 8.1874 18.3494 7.5532 18.3494C6.9088 18.3494 6.3865 17.8271 6.3865 17.1827C6.3865 16.5384 6.9088 16.016 7.5532 16.016C8.1876 16.016 8.7038 16.5225 8.7195 17.1532C8.7191 17.1632 8.7189 17.1733 8.7189 17.1835C8.7189 17.1934 8.7191 17.2033 8.7195 17.2131ZM16.6974 16.016C17.3417 16.016 17.8641 16.5384 17.8641 17.1827C17.8641 17.8271 17.3417 18.3494 16.6974 18.3494C16.053 18.3494 15.5307 17.8271 15.5307 17.1827C15.5307 16.5384 16.053 16.016 16.6974 16.016Z" fill="#737373"/>
</svg>
