<svg width="24" height="24" viewBox="0 0 24 24" fill="none" xmlns="http://www.w3.org/2000/svg">
<path fill-rule="evenodd" clip-rule="evenodd" d="M7.36849 8.79411C7.78249 8.79411 8.11849 9.13011 8.11849 9.54411C8.11849 9.95811 7.78249 10.2941 7.36849 10.2941H6.43549C4.81649 10.2941 3.50049 11.6101 3.50049 13.2281V18.1031C3.50049 19.7221 4.81649 21.0381 6.43549 21.0381H17.5655C19.1835 21.0381 20.5005 19.7221 20.5005 18.1031V13.2191C20.5005 11.6061 19.1885 10.2941 17.5765 10.2941H16.6335C16.2195 10.2941 15.8835 9.95811 15.8835 9.54411C15.8835 9.13011 16.2195 8.79411 16.6335 8.79411H17.5765C20.0155 8.79411 22.0005 10.7791 22.0005 13.2191V18.1031C22.0005 20.5491 20.0105 22.5381 17.5655 22.5381H6.43549C3.99049 22.5381 2.00049 20.5491 2.00049 18.1031V13.2281C2.00049 10.7831 3.99049 8.79411 6.43549 8.79411H7.36849ZM12.5311 2.22171L15.4471 5.14971C15.7391 5.44371 15.7381 5.91771 15.4451 6.20971C15.1511 6.50171 14.6771 6.50171 14.3851 6.20771L12.7495 4.56646L12.7501 15.541H11.2501L11.2495 4.56646L9.61609 6.20771C9.47009 6.35571 9.27709 6.42871 9.08509 6.42871C8.89409 6.42871 8.70209 6.35571 8.55609 6.20971C8.26309 5.91771 8.26109 5.44371 8.55409 5.14971L11.4691 2.22171C11.7501 1.93871 12.2501 1.93871 12.5311 2.22171Z" fill="#737373"/>
</svg>
