<svg viewBox="0 0 96 96" fill="none" xmlns="http://www.w3.org/2000/svg">
<rect rx="8" fill="#F1F5F9"/>
<path d="M45.9176 66.4015C45.2 66.4011 44.4904 66.2499 43.8352 65.9575C43.18 65.6655 42.5932 65.2387 42.1136 64.7055L38.7415 60.9495L34.5496 65.3495C33.9972 65.9051 33.2495 66.2227 32.4661 66.2343C31.6827 66.2455 30.9259 65.9503 30.3574 65.4111C29.789 64.8719 29.4539 64.1319 29.4241 63.3487C29.3942 62.5659 29.6718 61.8023 30.1975 61.2215L35.0457 56.1095C36.066 55.1195 37.4205 54.5487 38.8415 54.5095C39.5477 54.5215 40.2436 54.6795 40.886 54.9735C41.5284 55.2675 42.1028 55.6907 42.5736 56.2175L45.9056 59.9215L53.5576 50.8895C54.0196 50.3439 54.5908 49.9011 55.234 49.5899C55.8776 49.2783 56.5788 49.1051 57.2936 49.0815C58.0104 49.0551 58.7244 49.1819 59.3888 49.4527C60.0528 49.7239 60.6516 50.1331 61.1456 50.6535L67.7736 57.5135C68.326 58.0863 68.6288 58.8551 68.6144 59.6511C68.6004 60.4471 68.2704 61.2047 67.6976 61.7575C67.1248 62.3103 66.3556 62.6127 65.5596 62.5983C64.764 62.5843 64.0064 62.2543 63.4536 61.6815L57.5016 55.5135L49.8296 64.5695C49.3552 65.1291 48.766 65.5807 48.1024 65.8931C47.4384 66.2059 46.7152 66.3723 45.9816 66.3815L45.9176 66.4015Z" fill="#748297"/>
<path d="M65.0008 87H33.1767C30.8059 86.9584 28.4666 86.4488 26.2933 85.5004C24.1201 84.5524 22.1557 83.184 20.5128 81.4744C18.87 79.7644 17.5809 77.7468 16.7201 75.5376C15.8593 73.3284 15.4437 70.9704 15.4967 68.6V26.628C15.6171 21.9306 17.5604 17.4643 20.9154 14.1742C24.2704 10.8842 28.7737 9.0286 33.4725 9H56.1448C57.6536 9.00228 59.1468 9.3084 60.5352 9.90008C61.9232 10.4918 63.178 11.357 64.2248 12.444L79.3848 28.24C81.3932 30.3232 82.512 33.1063 82.5044 36V68.652C82.5536 73.3884 80.7516 77.9568 77.482 81.384C74.2124 84.8108 69.734 86.826 65.0008 87ZM33.4845 15C30.3566 15.0102 27.3555 16.2368 25.1159 18.4204C22.8763 20.6041 21.5738 23.5733 21.4845 26.7V68.652C21.4387 70.2356 21.7073 71.8124 22.2741 73.292C22.8409 74.7712 23.6948 76.124 24.787 77.2712C25.8792 78.4188 27.1878 79.3388 28.6373 79.9784C30.0869 80.6176 31.6487 80.9632 33.2325 80.996H64.8684C68.0276 80.8528 71.0072 79.4864 73.1768 77.1856C75.346 74.8848 76.5352 71.83 76.4924 68.668V36C76.4924 34.6581 75.9736 33.3682 75.0444 32.4L59.8804 16.6C59.3956 16.0947 58.814 15.6925 58.1696 15.4176C57.5256 15.1426 56.8328 15.0006 56.1328 15H33.4725H33.4845Z" fill="#748297"/>
<path d="M79.2498 37.062H68.2938C64.7902 37.0461 61.4354 35.6443 58.9622 33.1628C56.4886 30.6812 55.0981 27.3216 55.0938 23.818V12.25C55.0938 11.4544 55.4101 10.6913 55.9725 10.1287C56.5353 9.56604 57.2982 9.25 58.0938 9.25C58.8893 9.25 59.6525 9.56604 60.2153 10.1287C60.7777 10.6913 61.0938 11.4544 61.0938 12.25V23.818C61.0938 25.7316 61.8509 27.5675 63.2001 28.9248C64.5489 30.282 66.3802 31.0504 68.2938 31.062H79.2417C80.0373 31.062 80.8005 31.3781 81.3633 31.9407C81.9257 32.5033 82.2417 33.2663 82.2417 34.062C82.2417 34.8576 81.9257 35.6207 81.3633 36.1833C80.8005 36.7459 80.0373 37.062 79.2417 37.062H79.2498Z" fill="#748297"/>
<path d="M37.9659 48.8068C40.1992 48.8068 42.01 46.9959 42.01 44.7627C42.01 42.5291 40.1992 40.7188 37.9659 40.7188C35.7324 40.7188 33.9219 42.5291 33.9219 44.7627C33.9219 46.9959 35.7324 48.8068 37.9659 48.8068Z" fill="#748297"/>
</svg>
