<svg width="24" height="24" viewBox="0 0 24 24" fill="none" xmlns="http://www.w3.org/2000/svg">
<path fill-rule="evenodd" clip-rule="evenodd" d="M11.8338 3.87707C11.9346 3.94424 12.0659 3.94422 12.1667 3.87701L13.3374 3.09611C13.559 2.94834 13.491 2.61341 13.2269 2.57917C12.8256 2.52713 12.4164 2.5 12.0013 2.5C11.5849 2.5 11.1749 2.52721 10.7727 2.57965C10.5087 2.61405 10.4411 2.9488 10.6626 3.09642L11.8338 3.87707Z" fill="#737373"/>
<path fill-rule="evenodd" clip-rule="evenodd" d="M21.3099 13.4421L18.4186 10.8275C18.3389 10.7555 18.2269 10.7315 18.1248 10.7646L16.064 11.4328C15.9656 11.4647 15.8906 11.5451 15.8655 11.6454L15.0214 15.021C15.0013 15.1015 15.0154 15.1867 15.0603 15.2564L16.0281 16.7571C16.0867 16.848 16.1896 16.9003 16.2975 16.894L20.1719 16.6701C20.2252 16.6667 20.2745 16.6521 20.3005 16.6054C20.8197 15.6733 21.1812 14.6451 21.3619 13.5553C21.3694 13.5099 21.3442 13.4728 21.3099 13.4421Z" fill="#737373"/>
<path fill-rule="evenodd" clip-rule="evenodd" d="M9.7537 11.1129C9.64824 11.1832 9.59835 11.3123 9.62908 11.4352L10.343 14.2929C10.3764 14.4265 10.4964 14.5202 10.6341 14.5202H13.3656C13.5032 14.5202 13.6232 14.4265 13.6566 14.293L14.3715 11.4353C14.4023 11.3123 14.3524 11.1832 14.2468 11.1129L12.1662 9.72609C12.0654 9.65892 11.9342 9.65893 11.8334 9.72612L9.7537 11.1129Z" fill="#737373"/>
<path fill-rule="evenodd" clip-rule="evenodd" d="M15.6946 3.32794L12.8812 5.20387C12.7977 5.25952 12.7476 5.35318 12.7476 5.45348V8.15036C12.7476 8.25068 12.7977 8.34436 12.8812 8.39999L15.2718 9.99343C15.3481 10.0443 15.4434 10.0574 15.5307 10.0292L17.7788 9.30064C17.8624 9.27354 17.9299 9.21115 17.9635 9.12994L19.2846 5.93694C19.2881 5.9265 19.29 5.91647 19.283 5.90804C18.3489 4.79383 17.1661 3.89753 15.8188 3.30451C15.7757 3.28552 15.7335 3.30139 15.6946 3.32794Z" fill="#737373"/>
<path fill-rule="evenodd" clip-rule="evenodd" d="M19.4474 9.46749C19.3989 9.58465 19.4293 9.71961 19.5234 9.80465L20.9468 11.092C21.1444 11.2707 21.4528 11.1226 21.4213 10.858C21.299 9.82864 21.0141 8.84886 20.5882 7.94694C20.4811 7.72 20.1632 7.73663 20.0673 7.96854L19.4474 9.46749Z" fill="#737373"/>
<path fill-rule="evenodd" clip-rule="evenodd" d="M8.95045 15.2596C8.9903 15.1918 9.00193 15.111 8.98285 15.0348L8.13766 11.6559C8.11219 11.554 8.03532 11.4729 7.93497 11.442L5.85465 10.801C5.75357 10.7699 5.64355 10.7943 5.5651 10.8652L2.71563 13.4418C2.67083 13.4831 2.63663 13.5323 2.64684 13.5924C2.82427 14.6376 3.16903 15.6245 3.65834 16.5235C3.71529 16.6282 3.8336 16.6647 3.95263 16.6698L7.80158 16.8922C7.91394 16.8987 8.02049 16.8418 8.07753 16.7447L8.95045 15.2596Z" fill="#737373"/>
<path fill-rule="evenodd" clip-rule="evenodd" d="M13.8889 21.2473L14.8662 17.915C14.8908 17.8314 14.8777 17.7412 14.8305 17.668L13.8565 16.1577C13.8012 16.0721 13.7063 16.0203 13.6044 16.0203H10.4146C10.3082 16.0203 10.2098 16.0766 10.1559 16.1684L9.28157 17.6565C9.23963 17.7278 9.22906 17.8134 9.25235 17.8928L10.2359 21.2473C10.2497 21.2957 10.2755 21.3365 10.325 21.3454C10.87 21.4431 11.4286 21.4993 12.0009 21.4993C12.6236 21.4993 13.2314 21.4387 13.8207 21.3239C13.8589 21.3164 13.8782 21.2847 13.8889 21.2473Z" fill="#737373"/>
<path fill-rule="evenodd" clip-rule="evenodd" d="M16.4994 18.3845C16.3728 18.3918 16.2645 18.4779 16.2288 18.5995L15.761 20.1942C15.6902 20.4355 15.9284 20.6478 16.1543 20.5372C17.088 20.0802 17.9345 19.4742 18.6658 18.7509C18.8548 18.564 18.7071 18.2566 18.4418 18.272L16.4994 18.3845Z" fill="#737373"/>
<path fill-rule="evenodd" clip-rule="evenodd" d="M7.89636 18.5995C7.86065 18.4779 7.75235 18.3918 7.6258 18.3845L5.5523 18.2648C5.28713 18.2495 5.13948 18.5565 5.32828 18.7434C6.09929 19.5063 6.99915 20.1374 7.99319 20.602C8.21899 20.7075 8.45289 20.4955 8.38269 20.2563L7.89636 18.5995Z" fill="#737373"/>
<path fill-rule="evenodd" clip-rule="evenodd" d="M4.74152 5.93675L6.08655 9.18924C6.12073 9.2719 6.19001 9.33499 6.2755 9.36131L8.46634 10.0358C8.55251 10.0623 8.64605 10.0487 8.72106 9.99869L11.114 8.40282C11.1974 8.34717 11.2476 8.25352 11.2476 8.15323V5.44932C11.2476 5.34901 11.1974 5.25533 11.1139 5.19969L8.30552 3.32775C8.26713 3.30158 8.22547 3.28534 8.18295 3.30409C6.84797 3.89258 5.67412 4.77903 4.7448 5.87909C4.73054 5.89597 4.73238 5.91664 4.74152 5.93675Z" fill="#737373"/>
<path fill-rule="evenodd" clip-rule="evenodd" d="M4.50226 9.8046C4.59626 9.71957 4.62668 9.58465 4.57826 9.46751L3.94843 7.9438C3.85268 7.71218 3.53534 7.6951 3.4276 7.92139C2.99139 8.83755 2.70029 9.83412 2.57831 10.8823C2.54755 11.1466 2.85561 11.2941 3.05294 11.1156L4.50226 9.8046Z" fill="#737373"/>
</svg>
