<svg width="24" height="24" viewBox="0 0 24 24" fill="none" xmlns="http://www.w3.org/2000/svg">
<path fill-rule="evenodd" clip-rule="evenodd" d="M15.0201 16.159H8.99007C8.57007 16.159 8.24007 15.829 8.24007 15.409C8.24007 14.999 8.57007 14.659 8.99007 14.659H15.0201C15.4401 14.659 15.7701 14.999 15.7701 15.409C15.7701 15.829 15.4401 16.159 15.0201 16.159ZM8.99007 10.649H12.0001C12.4201 10.649 12.7501 10.989 12.7501 11.409C12.7501 11.819 12.4201 12.149 12.0001 12.149H8.99007C8.57007 12.149 8.24007 11.819 8.24007 11.409C8.24007 10.989 8.57007 10.649 8.99007 10.649ZM16.8929 4.38053C16.7729 4.34508 16.6553 4.43468 16.6374 4.55852C16.4646 5.75466 15.4286 6.67897 14.1901 6.67897H9.81007C8.57168 6.67897 7.52694 5.7548 7.35293 4.5588C7.3349 4.43488 7.21714 4.34526 7.09711 4.38094C5.34578 4.90146 4.07007 6.53337 4.07007 8.45897V17.359C4.07007 19.699 5.97007 21.609 8.32007 21.609H15.6801C18.0301 21.609 19.9301 19.699 19.9301 17.359V8.45897C19.9301 6.53286 18.6537 4.9006 16.8929 4.38053Z" fill="#737373"/>
<path fill-rule="evenodd" clip-rule="evenodd" d="M9.81369 5.48062H14.1937C14.8737 5.48062 15.4337 4.94063 15.4537 4.26064C15.4637 4.24064 15.4637 4.22063 15.4637 4.20063V3.66062C15.4637 2.96062 14.8937 2.39062 14.1937 2.39062H9.81369C9.11369 2.39062 8.53369 2.96062 8.53369 3.66062V4.20063C8.53369 4.22063 8.53369 4.23063 8.54369 4.25063C8.56369 4.94062 9.13369 5.48062 9.81369 5.48062Z" fill="#737373"/>
</svg>
