<svg width="24" height="24" viewBox="0 0 24 24" fill="none" xmlns="http://www.w3.org/2000/svg">
<path fill-rule="evenodd" clip-rule="evenodd" d="M14.4791 12.2889L10.9421 15.8249C10.7951 15.9719 10.6041 16.0449 10.4121 16.0449C10.2201 16.0449 10.0281 15.9719 9.88106 15.8249L8.15306 14.0979C7.86006 13.8049 7.86006 13.3299 8.15306 13.0369C8.44606 12.7439 8.92106 12.7439 9.21406 13.0369L10.4121 14.2339L13.4181 11.2279C13.7111 10.9349 14.1861 10.9349 14.4791 11.2279C14.7721 11.5209 14.7721 11.9959 14.4791 12.2889ZM19.8501 9.09591H16.8881C15.1221 9.08591 13.6651 7.62391 13.6651 5.84091V2.70291C13.6651 2.45891 13.4721 2.25391 13.2211 2.25391H8.06806C5.66606 2.25391 3.71606 4.23291 3.71606 6.64991V17.1559C3.71606 19.6899 5.76206 21.7459 8.27106 21.7459H15.9421C18.3451 21.7459 20.2841 19.7869 20.2841 17.3699V9.53391C20.2841 9.29091 20.0911 9.09591 19.8501 9.09591Z" fill="#737373"/>
<path fill-rule="evenodd" clip-rule="evenodd" d="M17.0163 7.67211C17.6893 7.67911 18.6243 7.68211 19.4173 7.67911C19.8233 7.67811 20.0293 7.18811 19.7483 6.89211C19.2393 6.35811 18.5303 5.61311 17.8183 4.86511C17.1033 4.11411 16.3853 3.36011 15.8633 2.81211C15.5743 2.50911 15.0703 2.71711 15.0703 3.13711V5.70611C15.0703 6.78411 15.9493 7.67211 17.0163 7.67211Z" fill="#737373"/>
</svg>
