<svg width="24" height="24" viewBox="0 0 24 24" fill="none" xmlns="http://www.w3.org/2000/svg">
<path fill-rule="evenodd" clip-rule="evenodd" d="M18.773 8.86133H12.24C10.054 8.86133 7.86805 8.86133 5.68305 8.86133C5.24105 8.86133 4.94105 9.17233 4.96305 9.61533C4.97705 9.88033 5.00205 10.1443 5.02305 10.4083C5.09005 11.2253 5.75205 18.7893 5.84005 19.2283C6.11505 20.6053 7.16905 21.4673 8.57205 21.4883C9.50105 21.5023 14.417 21.5053 15.947 21.4843C16.524 21.4763 17.066 21.3223 17.541 20.9833C18.286 20.4523 18.616 19.6903 18.714 18.8103C18.788 18.1473 19.282 12.5563 19.339 11.8523C19.399 11.1133 19.462 10.3743 19.511 9.63533C19.543 9.15533 19.253 8.86133 18.773 8.86133Z" fill="#737373"/>
<path fill-rule="evenodd" clip-rule="evenodd" d="M19.9235 5.57H16.8275C16.5615 5.57 16.3325 5.385 16.2755 5.126L15.9855 3.804C15.7805 3.037 15.0815 2.5 14.2855 2.5H10.1325C9.33653 2.5 8.63653 3.036 8.42353 3.835L8.14153 5.133C8.08653 5.388 7.86153 5.57 7.60053 5.57H4.57753C4.09053 5.57 3.69653 5.964 3.69653 6.45C3.69653 6.937 4.09053 7.331 4.57753 7.331H19.9235C20.4095 7.331 20.8035 6.937 20.8035 6.45C20.8035 5.964 20.4095 5.57 19.9235 5.57Z" fill="#737373"/>
</svg>
