<svg width="24" height="24" viewBox="0 0 24 24" fill="none" xmlns="http://www.w3.org/2000/svg">
<path fill-rule="evenodd" clip-rule="evenodd" d="M11.2442 17.655L13.8842 14.775C13.9142 14.735 13.9142 14.675 13.8742 14.645L13.3142 14.125H13.1942L10.5342 17.035C10.4342 17.135 10.3742 17.275 10.3642 17.425L10.3042 17.975L10.8242 17.885C10.9842 17.855 11.1342 17.775 11.2442 17.655Z" fill="#737373"/>
<path fill-rule="evenodd" clip-rule="evenodd" d="M8.86413 17.2649C8.91413 16.8049 9.10413 16.3749 9.41413 16.0249L12.0841 13.1149C12.3741 12.8049 12.7741 12.6149 13.1941 12.6049C13.6141 12.5849 14.0241 12.7349 14.3341 13.0249L14.8941 13.5449C15.5341 14.1449 15.5741 15.1449 14.9841 15.7849L12.3541 18.6649C12.0241 19.0249 11.5741 19.2749 11.0741 19.3649L10.4641 19.4649C10.3841 19.4749 10.3041 19.4849 10.2241 19.4849C9.86413 19.4849 9.51413 19.3449 9.24413 19.0949C8.91413 18.7849 8.75413 18.3449 8.80413 17.8949L8.86413 17.2649ZM3.48413 16.8649C3.48413 19.8449 5.27413 21.6249 8.27413 21.6249H15.8941C18.8941 21.6249 20.6841 19.8749 20.6841 16.9349V11.2249C20.6841 11.1144 20.5946 11.0249 20.4841 11.0249H3.68413C3.57367 11.0249 3.48413 11.1144 3.48413 11.2249V16.8649Z" fill="#737373"/>
<path fill-rule="evenodd" clip-rule="evenodd" d="M19.4541 5.325C18.7241 4.605 17.6941 4.195 16.4741 4.085V3.125C16.4741 2.715 16.1341 2.375 15.7241 2.375C15.3041 2.375 14.9741 2.715 14.9741 3.125V6.675C14.9041 6.695 14.8441 6.715 14.7741 6.715C14.3541 6.715 14.0241 6.375 14.0241 5.965V4.245C14.0241 4.13454 13.9346 4.045 13.8241 4.045H9.19413V3.125C9.19413 2.715 8.86413 2.375 8.44413 2.375C8.03413 2.375 7.69413 2.715 7.69413 3.125V6.675C7.63413 6.695 7.56413 6.715 7.49413 6.715C7.08413 6.715 6.74413 6.375 6.74413 5.965V4.50055C6.74413 4.37063 6.62176 4.27513 6.49731 4.31245C4.5886 4.88473 3.48413 6.43211 3.48413 8.725V9.325C3.48413 9.43546 3.57367 9.525 3.68413 9.525H20.4841C20.5946 9.525 20.6841 9.43546 20.6841 9.325V8.725C20.6841 7.315 20.2641 6.135 19.4541 5.325Z" fill="#737373"/>
</svg>
