<svg width="24" height="24" viewBox="0 0 24 24" fill="none" xmlns="http://www.w3.org/2000/svg">
<path fill-rule="evenodd" clip-rule="evenodd" d="M2.80078 7.54177C2.80078 4.94677 4.89842 2.83984 7.49035 2.83984H17.6122C20.2044 2.83984 22.3008 4.94702 22.3008 7.54177V14.4811C22.3008 17.0756 20.2046 19.184 17.6122 19.184H16.5439C16.171 19.184 15.8134 19.3321 15.5495 19.597L14.1274 21.0229C13.257 21.8971 11.8452 21.8969 10.9746 21.0233L9.55307 19.597C9.28911 19.3321 8.93153 19.184 8.55867 19.184H7.49035C4.89818 19.184 2.80078 17.0758 2.80078 14.4811V7.54177ZM7.49035 4.33984C5.73114 4.33984 4.30078 5.7709 4.30078 7.54177V14.4811C4.30078 16.2522 5.73138 17.684 7.49035 17.684H8.55867C9.33003 17.684 10.07 17.9907 10.6155 18.5381L12.037 19.9645C12.3221 20.2505 12.7806 20.2499 13.0641 19.9649L14.487 18.5381C14.487 18.5382 14.4871 18.5381 14.487 18.5381C15.0325 17.9909 15.7726 17.684 16.5439 17.684H17.6122C19.3709 17.684 20.8008 16.2524 20.8008 14.4811V7.54177C20.8008 5.77066 19.3712 4.33984 17.6122 4.33984H7.49035Z" fill="#737373"/>
<path fill-rule="evenodd" clip-rule="evenodd" d="M8.60938 12.707C8.60938 12.2928 8.94515 11.957 9.35938 11.957H13.0216C13.4359 11.957 13.7716 12.2928 13.7716 12.707C13.7716 13.1212 13.4359 13.457 13.0216 13.457H9.35938C8.94515 13.457 8.60938 13.1212 8.60938 12.707Z" fill="#737373"/>
<path fill-rule="evenodd" clip-rule="evenodd" d="M8.60938 8.88281C8.60938 8.4686 8.94515 8.13281 9.35938 8.13281H15.7421C16.1563 8.13281 16.4921 8.4686 16.4921 8.88281C16.4921 9.29703 16.1563 9.63281 15.7421 9.63281H9.35938C8.94515 9.63281 8.60938 9.29703 8.60938 8.88281Z" fill="#737373"/>
</svg>
