<svg width="24" height="24" viewBox="0 0 24 24" fill="none" xmlns="http://www.w3.org/2000/svg">
<path fill-rule="evenodd" clip-rule="evenodd" d="M14.6769 17.2674C14.6769 17.6874 14.3469 18.0174 13.9269 18.0174C13.5169 18.0174 13.1769 17.6874 13.1769 17.2674V12.7574C13.1769 12.3474 13.5169 12.0074 13.9269 12.0074C14.3469 12.0074 14.6769 12.3474 14.6769 12.7574V17.2674ZM11.2969 17.2674C11.2969 17.6874 10.9669 18.0174 10.5469 18.0174C10.1369 18.0174 9.79691 17.6874 9.79691 17.2674V12.7574C9.79691 12.3474 10.1369 12.0074 10.5469 12.0074C10.9669 12.0074 11.2969 12.3474 11.2969 12.7574V17.2674ZM18.7769 8.85742H5.68691C5.23691 8.85742 4.93691 9.17742 4.96691 9.61742C4.97691 9.87742 4.99691 10.1474 5.02691 10.4074C5.08691 11.2274 5.75691 18.7874 5.83691 19.2274C6.11691 20.6074 7.16691 21.4674 8.57691 21.4874C9.49691 21.5074 14.4169 21.5074 15.9469 21.4874C16.5269 21.4774 17.0669 21.3174 17.5369 20.9874C18.2869 20.4474 18.6169 19.6874 18.7169 18.8074C18.7869 18.1474 19.2869 12.5574 19.3369 11.8474C19.3969 11.1174 19.4569 10.3774 19.5069 9.63742C19.5469 9.15742 19.2569 8.85742 18.7769 8.85742Z" fill="#737373"/>
<path fill-rule="evenodd" clip-rule="evenodd" d="M19.9235 5.57H16.8275C16.5615 5.57 16.3325 5.385 16.2755 5.126L15.9855 3.804C15.7805 3.037 15.0815 2.5 14.2855 2.5H10.1325C9.33653 2.5 8.63653 3.036 8.42353 3.835L8.14153 5.133C8.08653 5.388 7.86153 5.57 7.60053 5.57H4.57753C4.09053 5.57 3.69653 5.964 3.69653 6.45C3.69653 6.937 4.09053 7.331 4.57753 7.331H19.9235C20.4095 7.331 20.8035 6.937 20.8035 6.45C20.8035 5.964 20.4095 5.57 19.9235 5.57Z" fill="#737373"/>
</svg>
