<svg width="24" height="24" viewBox="0 0 24 24" fill="none" xmlns="http://www.w3.org/2000/svg">
<path fill-rule="evenodd" clip-rule="evenodd" d="M2.7409 12.0729C2.95204 12.8119 3.43764 13.4453 4.10271 13.8464C4.82056 14.2792 5.83399 14.2792 7.95587 14.2792C8.92708 14.2792 9.32823 14.6909 8.99042 15.8838C8.54704 17.4884 8.11422 20.5182 9.82439 21.0143C10.5845 21.2466 11.4396 20.9299 11.9252 20.3071C13.0744 18.838 14.2143 17.3689 15.3536 15.8909C15.4678 15.7427 15.4683 15.5384 15.374 15.3769C15.2355 15.1399 15.1262 14.884 15.0499 14.617C14.9232 14.1525 14.9232 13.7303 14.9232 13.0335V5.40112C14.9232 4.88847 14.9232 4.52777 14.974 4.18989C15.0025 3.99985 14.923 3.80354 14.7511 3.71754C13.9625 3.32288 13.1031 3.08343 12.2102 3.03644C10.4367 2.93087 8.09311 2.86753 6.40405 3.04699C5.15837 3.19479 3.72267 4.14488 3.2054 5.5278C2.45588 7.58634 2.30808 10.5316 2.7409 12.0729Z" fill="#737373"/>
<path fill-rule="evenodd" clip-rule="evenodd" d="M17.8579 15.461C18.1007 15.5243 18.4068 15.5243 19.0085 15.5243C19.6103 15.5243 19.9059 15.5243 20.1487 15.461C20.7715 15.2815 21.2571 14.7959 21.426 14.1836C21.4999 13.9303 21.4999 13.6347 21.4999 13.033V5.40054C21.4999 4.79881 21.4999 4.50323 21.426 4.24987C21.2571 3.63759 20.7715 3.15198 20.1487 2.97252C19.9059 2.90918 19.6103 2.90918 19.0085 2.90918C18.4068 2.90918 18.1007 2.90918 17.8579 2.97252C17.235 3.15198 16.7494 3.63759 16.5805 4.24987C16.5066 4.50323 16.5066 4.79881 16.5066 5.40054V13.033C16.5066 13.6347 16.5066 13.9303 16.5805 14.1836C16.7494 14.7959 17.235 15.2815 17.8579 15.461Z" fill="#737373"/>
</svg>
