<svg width="24" height="24" viewBox="0 0 24 24" fill="none" xmlns="http://www.w3.org/2000/svg">
<path fill-rule="evenodd" clip-rule="evenodd" d="M13.1026 3.66934L14.9306 7.32234C15.1116 7.68234 15.4586 7.93034 15.8576 7.98634L19.9476 8.57533C20.6106 8.66236 21.0766 9.27136 20.9896 9.93436C20.9536 10.2054 20.8266 10.4574 20.6296 10.6474L17.6716 13.4894C17.3806 13.7664 17.2476 14.1694 17.3176 14.5654L18.0176 18.5774C18.1256 19.2474 17.6696 19.8774 16.9996 19.9854C16.7356 20.0274 16.4656 19.9824 16.2296 19.8574L12.5756 17.9634C12.2156 17.7774 11.7886 17.7774 11.4286 17.9634L7.77259 19.8583C7.17359 20.1763 6.4306 19.9483 6.1126 19.3494C5.9876 19.1124 5.94258 18.8424 5.98558 18.5784L6.6856 14.5654C6.7546 14.1704 6.62159 13.7674 6.33159 13.4904L3.37059 10.6484C2.88959 10.1844 2.8746 9.41836 3.3386 8.93636C3.5286 8.73936 3.78058 8.61236 4.05258 8.57633L8.1426 7.98734C8.5416 7.93134 8.88859 7.68334 9.07059 7.32334L10.9016 3.66934C11.2166 3.06135 11.9646 2.82435 12.5726 3.13935C12.7996 3.25635 12.9846 3.44135 13.1026 3.66934Z" stroke="#737373" stroke-width="1.5" stroke-linecap="round" stroke-linejoin="round"/>
</svg>
