<svg width="24" height="24" viewBox="0 0 24 24" fill="none" xmlns="http://www.w3.org/2000/svg">
<path fill-rule="evenodd" clip-rule="evenodd" d="M19.5193 8.5795L15.4193 7.9885C15.1873 7.9595 14.9853 7.8145 14.8783 7.6005L13.0503 3.9405C13.0473 3.9365 13.0453 3.9325 13.0433 3.9275C12.8753 3.6165 12.6143 3.3555 12.2993 3.1885C11.4523 2.7575 10.4013 3.0895 9.9543 3.9405L8.12434 7.5995C8.01634 7.8135 7.81234 7.9595 7.57134 7.9895L3.48034 8.5795C3.08434 8.6385 2.73734 8.8145 2.47934 9.08648C2.16134 9.41548 1.99134 9.84948 2.00034 10.3075C2.00934 10.7655 2.19634 11.1905 2.52434 11.5045L5.49134 14.3605C5.65634 14.5145 5.73334 14.7495 5.69334 14.9785L4.99234 18.9965C4.93234 19.3715 4.99634 19.7585 5.17034 20.0785C5.38834 20.4885 5.75134 20.7875 6.19334 20.9235C6.36034 20.9745 6.53134 20.9995 6.70034 20.9995C6.97834 20.9995 7.25334 20.9315 7.50234 20.7985L11.1623 18.9065C11.3743 18.7935 11.6293 18.7935 11.8463 18.9085L15.4883 20.7925C15.8153 20.9725 16.1883 21.0375 16.5813 20.9775C17.5203 20.8235 18.1633 19.9335 18.0103 18.9885L17.3103 14.9785C17.2693 14.7425 17.3453 14.5115 17.5183 14.3455L20.4763 11.5045C20.7533 11.2375 20.9353 10.8805 20.9853 10.4995C21.1083 9.56748 20.4493 8.7055 19.5193 8.5795Z" fill="#737373"/>
</svg>
