<svg width="24" height="24" viewBox="0 0 24 24" fill="none" xmlns="http://www.w3.org/2000/svg">
<path d="M16.9103 11.7624C16.751 11.7627 16.5957 11.7119 16.4673 11.6174L10.9673 7.57838C10.807 7.4601 10.7002 7.28297 10.6705 7.08596C10.6408 6.88895 10.6905 6.68821 10.8088 6.52788C10.9271 6.36756 11.1043 6.26079 11.3013 6.23107C11.4983 6.20134 11.699 6.2511 11.8593 6.36938L17.3593 10.4084C17.4866 10.5021 17.581 10.6335 17.6291 10.7841C17.6772 10.9346 17.6766 11.0964 17.6272 11.2466C17.5779 11.3967 17.4824 11.5274 17.3544 11.62C17.2264 11.7126 17.0724 11.7625 16.9143 11.7624H16.9103Z" fill="#737373"/>
<path d="M7.67714 20.498C6.97419 20.4952 6.30068 20.2154 5.80258 19.7194C5.30449 19.2233 5.02193 18.551 5.01614 17.848L5.00015 16.072C4.99222 15.059 5.30209 14.0689 5.88615 13.241L12.3511 4.27504C12.8359 3.61083 13.5642 3.16593 14.3765 3.03789C15.1887 2.90986 16.0186 3.10914 16.6841 3.59204L18.4181 4.85604C19.0825 5.34035 19.5272 6.06871 19.6546 6.88092C19.7819 7.69314 19.5814 8.52267 19.0971 9.18704L12.7071 18.048C12.0725 18.946 11.1526 19.6026 10.0971 19.911L8.43014 20.396C8.18519 20.4653 7.93169 20.4996 7.67714 20.498ZM14.8571 4.49804C14.6039 4.49687 14.354 4.55581 14.128 4.67003C13.902 4.78425 13.7064 4.95047 13.5571 5.15504L7.10514 14.11C6.70396 14.682 6.49236 15.3654 6.50015 16.064L6.51614 17.839C6.51772 18.02 6.56127 18.1981 6.64338 18.3594C6.72549 18.5206 6.84391 18.6606 6.98933 18.7683C7.13474 18.876 7.30316 18.9485 7.48135 18.98C7.65953 19.0115 7.8426 19.0013 8.01615 18.95L9.68214 18.466C10.412 18.2512 11.0477 17.7958 11.4861 17.174L17.8801 8.30704C18.0045 8.13722 18.0942 7.94453 18.144 7.73999C18.1938 7.53546 18.2027 7.32311 18.1703 7.11511C18.1379 6.90712 18.0647 6.70756 17.9551 6.52789C17.8454 6.34821 17.7013 6.19195 17.5311 6.06804L15.7971 4.80404C15.524 4.60538 15.1949 4.49826 14.8571 4.49804Z" fill="#737373"/>
</svg>
