<svg width="24" height="24" viewBox="0 0 24 24" fill="none" xmlns="http://www.w3.org/2000/svg">
<path fill-rule="evenodd" clip-rule="evenodd" d="M9.06587 12.9084C8.68987 12.9084 8.39087 13.2174 8.39087 13.5834C8.39087 13.9594 8.68987 14.2584 9.06587 14.2584C9.43187 14.2584 9.74087 13.9594 9.74087 13.5834C9.74087 13.2174 9.43187 12.9084 9.06587 12.9084Z" fill="#737373"/>
<path fill-rule="evenodd" clip-rule="evenodd" d="M15.4102 14.8177C15.8922 14.3447 15.9602 13.6027 15.5642 13.0337L12.9504 9.39255C12.8712 9.2823 12.7282 9.23994 12.5983 9.27944C12.5113 9.30591 12.4228 9.3296 12.3342 9.35067C12.1512 9.38867 11.9682 9.40867 11.7852 9.41767H6.3372C6.1542 9.40867 5.9712 9.38867 5.7872 9.35067C5.70192 9.33026 5.61637 9.30739 5.53198 9.28063C5.39739 9.23795 5.24654 9.27856 5.16433 9.39335L2.5572 13.0337C2.1622 13.6027 2.2392 14.3547 2.7312 14.8177C3.8012 15.8397 6.4532 18.4717 7.8702 20.9977C7.89526 21.0415 7.92257 21.0835 7.95192 21.1236C8.08997 21.312 8.3422 21.1815 8.3422 20.9479V15.7887C8.3422 15.6626 8.26228 15.5518 8.14859 15.4972C7.43342 15.1536 6.9442 14.4257 6.9442 13.5837C6.9442 12.4167 7.8992 11.4627 9.0662 11.4627C10.2322 11.4627 11.1872 12.4167 11.1872 13.5837C11.1872 14.4257 10.698 15.1536 9.98279 15.4972C9.8691 15.5518 9.7892 15.6626 9.7892 15.7887V20.9253C9.7892 21.1618 10.0457 21.2906 10.1822 21.0975C10.2071 21.0623 10.2305 21.0257 10.2522 20.9877C11.7462 18.3467 14.5712 15.5987 15.4102 14.8177Z" fill="#737373"/>
<path fill-rule="evenodd" clip-rule="evenodd" d="M4.43763 6.95928C4.64963 7.66328 5.20863 8.19328 5.89363 8.37628C6.06663 8.42528 6.25063 8.45428 6.43363 8.45428H11.6977C11.8807 8.45428 12.0647 8.42528 12.2287 8.37628C12.9227 8.19328 13.4817 7.66328 13.6837 6.95928L14.0407 5.72528C14.2047 5.15628 14.0987 4.56828 13.7417 4.10528C13.3947 3.63328 12.8547 3.36328 12.2667 3.36328H5.85463C5.27663 3.36328 4.73664 3.63328 4.38964 4.10528C4.03264 4.56828 3.92663 5.15628 4.09063 5.72528L4.43763 6.95928Z" fill="#737373"/>
<path fill-rule="evenodd" clip-rule="evenodd" d="M20.9448 20.1552C19.9838 20.1552 19.5348 19.9932 19.0138 19.8062C18.4448 19.6012 17.7988 19.3682 16.5738 19.3682C15.3518 19.3682 14.7068 19.6002 14.1368 19.8062C13.6168 19.9932 13.1688 20.1552 12.2068 20.1552C11.7928 20.1552 11.4568 20.4912 11.4568 20.9052C11.4568 21.3192 11.7928 21.6552 12.2068 21.6552C13.4298 21.6552 14.0758 21.4222 14.6458 21.2172C15.1658 21.0302 15.6138 20.8682 16.5738 20.8682C17.5368 20.8682 17.9858 21.0302 18.5068 21.2172C19.0758 21.4232 19.7218 21.6552 20.9448 21.6552C21.3588 21.6552 21.6948 21.3192 21.6948 20.9052C21.6948 20.4912 21.3588 20.1552 20.9448 20.1552Z" fill="#737373"/>
</svg>
