<svg width="24" height="24" viewBox="0 0 24 24" fill="none" xmlns="http://www.w3.org/2000/svg">
<path d="M8.73724 21.0435C8.63169 21.0436 8.52733 21.0211 8.43124 20.9775C7.02495 20.3532 5.78711 19.4038 4.81973 18.2073C3.85234 17.0109 3.1831 15.6017 2.86714 14.0959C2.55117 12.5901 2.59751 11.0307 3.00237 9.54633C3.40723 8.06194 4.15901 6.695 5.19576 5.55813C6.23251 4.42127 7.52456 3.54702 8.96545 3.00742C10.4063 2.46782 11.9548 2.27831 13.4833 2.45452C15.0118 2.63073 16.4765 3.1676 17.7568 4.0209C19.0371 4.87421 20.0964 6.01952 20.8472 7.36247C20.9439 7.53645 20.9675 7.74171 20.9128 7.93309C20.8582 8.12447 20.7297 8.2863 20.5557 8.38297C20.3818 8.47964 20.1765 8.50324 19.9851 8.44857C19.7937 8.3939 19.6319 8.26545 19.5352 8.09147C18.8998 6.95624 18.0037 5.98827 16.9208 5.26733C15.8379 4.54639 14.5991 4.09313 13.3066 3.94489C12.0142 3.79665 10.7049 3.95768 9.4869 4.41472C8.26887 4.87175 7.17688 5.6117 6.30094 6.57358C5.425 7.53546 4.79019 8.69173 4.44882 9.9471C4.10744 11.2025 4.06928 12.521 4.33749 13.794C4.60569 15.067 5.1726 16.2581 5.99145 17.269C6.8103 18.2799 7.85767 19.0818 9.04723 19.6085C9.20427 19.6785 9.33248 19.8003 9.41039 19.9536C9.48831 20.1069 9.5112 20.2822 9.47523 20.4504C9.43926 20.6185 9.34661 20.7692 9.21281 20.8771C9.079 20.9851 8.91216 21.0438 8.74023 21.0435H8.73724Z" fill="#737373"/>
<path d="M20.5189 8.47728H17.5469C17.348 8.47728 17.1572 8.39826 17.0165 8.25761C16.8759 8.11695 16.7969 7.92619 16.7969 7.72728C16.7969 7.52837 16.8759 7.3376 17.0165 7.19695C17.1572 7.05629 17.348 6.97728 17.5469 6.97728H19.7699V4.73828C19.7699 4.53937 19.8489 4.3486 19.9895 4.20795C20.1302 4.06729 20.321 3.98828 20.5199 3.98828C20.7188 3.98828 20.9095 4.06729 21.0502 4.20795C21.1909 4.3486 21.2699 4.53937 21.2699 4.73828V7.72728C21.2699 7.82586 21.2504 7.92346 21.2127 8.01452C21.1749 8.10558 21.1196 8.18831 21.0499 8.25797C20.9801 8.32762 20.8973 8.38284 20.8062 8.42047C20.7151 8.4581 20.6175 8.47741 20.5189 8.47728Z" fill="#737373"/>
<path d="M12.4108 12.8422H8.96484C8.76593 12.8422 8.57518 12.7631 8.43452 12.6225C8.29387 12.4818 8.21484 12.2911 8.21484 12.0922C8.21484 11.8932 8.29387 11.7025 8.43452 11.5618C8.57518 11.4212 8.76593 11.3422 8.96484 11.3422H11.6649V7.91016C11.6649 7.71124 11.7439 7.52048 11.8845 7.37983C12.0252 7.23918 12.2159 7.16016 12.4149 7.16016C12.6138 7.16016 12.8045 7.23918 12.9452 7.37983C13.0858 7.52048 13.1649 7.71124 13.1649 7.91016V12.0942C13.1646 12.1928 13.1449 12.2905 13.1068 12.3815C13.0688 12.4725 13.0131 12.5551 12.9431 12.6246C12.873 12.6941 12.7899 12.7491 12.6986 12.7864C12.6073 12.8237 12.5095 12.8427 12.4108 12.8422Z" fill="#737373"/>
<path fill-rule="evenodd" clip-rule="evenodd" d="M18.0478 11.0318C18.3648 11.1271 18.5819 11.419 18.5819 11.7501V17.1782H19.25C19.6642 17.1782 20 17.514 20 17.9282C20 18.3424 19.6642 18.6782 19.25 18.6782H18.5819V19.75C18.5819 20.1642 18.2461 20.5 17.8319 20.5C17.4177 20.5 17.0819 20.1642 17.0819 19.75V18.6782H13.75C13.474 18.6782 13.2202 18.5266 13.0895 18.2835C12.9587 18.0403 12.9721 17.7451 13.1243 17.5148L17.2062 11.3366C17.3887 11.0604 17.7307 10.9365 18.0478 11.0318ZM15.1444 17.1782H17.0819V14.2458L15.1444 17.1782Z" fill="#737373"/>
</svg>
