<svg width="24" height="24" viewBox="0 0 24 24" fill="none" xmlns="http://www.w3.org/2000/svg">
<path fill-rule="evenodd" clip-rule="evenodd" d="M15.4563 9.59473L9.60363 15.4473L8.54297 14.3867L14.3956 8.53406L15.4563 9.59473Z" fill="#737373"/>
<path fill-rule="evenodd" clip-rule="evenodd" d="M9.59983 8.5321L15.4564 14.3898L14.3956 15.4504L8.53906 9.59264L9.59983 8.5321Z" fill="#737373"/>
<path fill-rule="evenodd" clip-rule="evenodd" d="M2 12C2 6.47715 6.47715 2 12 2C17.5228 2 22 6.47715 22 12C22 17.5228 17.5228 22 12 22C6.47715 22 2 17.5228 2 12ZM12 3.5C7.30558 3.5 3.5 7.30558 3.5 12C3.5 16.6944 7.30558 20.5 12 20.5C16.6944 20.5 20.5 16.6944 20.5 12C20.5 7.30558 16.6944 3.5 12 3.5Z" fill="#737373"/>
</svg>
