<svg width="24" height="24" viewBox="0 0 24 24" fill="none" xmlns="http://www.w3.org/2000/svg">
<path fill-rule="evenodd" clip-rule="evenodd" d="M20.2959 5.325C19.5659 4.605 18.5359 4.195 17.3159 4.085V3.125C17.3159 2.715 16.9759 2.375 16.5659 2.375C16.1459 2.375 15.8159 2.715 15.8159 3.125V6.675C15.7459 6.695 15.6859 6.715 15.6159 6.715C15.1959 6.715 14.8659 6.375 14.8659 5.965V4.245C14.8659 4.13454 14.7764 4.045 14.6659 4.045H10.0359V3.125C10.0359 2.715 9.70593 2.375 9.28593 2.375C8.87593 2.375 8.53593 2.715 8.53593 3.125V6.675C8.47593 6.695 8.40593 6.715 8.33593 6.715C7.92593 6.715 7.58593 6.375 7.58593 5.965V4.50055C7.58593 4.37063 7.46356 4.27513 7.33911 4.31245C5.43039 4.88473 4.32593 6.43211 4.32593 8.725V9.325C4.32593 9.43546 4.41547 9.525 4.52593 9.525H21.3259C21.4364 9.525 21.5259 9.43546 21.5259 9.325V8.725C21.5259 7.315 21.1059 6.135 20.2959 5.325Z" fill="#737373"/>
<path fill-rule="evenodd" clip-rule="evenodd" d="M8.88968 14.7189H9.30368C9.71768 14.7189 10.0537 15.0549 10.0537 15.4689C10.0537 15.8829 9.71768 16.2189 9.30368 16.2189H8.88968C8.47568 16.2189 8.13968 15.8829 8.13968 15.4689C8.13968 15.0549 8.47568 14.7189 8.88968 14.7189ZM12.2737 14.7189H17.1167C17.5307 14.7189 17.8667 15.0549 17.8667 15.4689C17.8667 15.8829 17.5307 16.2189 17.1167 16.2189H12.2737C11.8597 16.2189 11.5237 15.8829 11.5237 15.4689C11.5237 15.0549 11.8597 14.7189 12.2737 14.7189ZM4.32568 16.8649C4.32568 19.8449 6.11568 21.6249 9.11568 21.6249H16.7357C19.7357 21.6249 21.5257 19.8749 21.5257 16.9349V11.2249C21.5257 11.1144 21.4362 11.0249 21.3257 11.0249H4.52568C4.41523 11.0249 4.32568 11.1144 4.32568 11.2249V16.8649Z" fill="#737373"/>
</svg>
