<svg width="24" height="24" viewBox="0 0 24 24" fill="none" xmlns="http://www.w3.org/2000/svg">
<path fill-rule="evenodd" clip-rule="evenodd" d="M13.0802 2.86759C12.5981 2.03976 11.4021 2.03976 10.92 2.86759L8.12558 7.66527L2.69716 8.84164C1.76084 9.0444 1.39128 10.1818 2.0296 10.8962L5.72975 15.0373L5.17034 20.5624C5.1646 20.619 5.16263 20.6712 5.16416 20.7192C5.18161 21.5905 6.09046 22.197 6.91828 21.8322L12.0001 19.5928L17.0819 21.8322C17.9586 22.2185 18.9261 21.5155 18.8296 20.5624L18.2702 15.0373L21.9704 10.8962C22.6087 10.1818 22.2391 9.04439 21.3028 8.84164L15.8753 7.66632L13.0802 2.86759ZM11.9999 17.5232C12.1717 17.5232 12.3435 17.5585 12.5042 17.6293L16.7101 19.4827L16.2471 14.9099C16.2118 14.5608 16.3248 14.2128 16.5586 13.9511L19.621 10.5238L15.129 9.55107C14.786 9.47679 14.49 9.26176 14.3134 8.95851L12.0001 4.98689L11.9999 17.5232Z" fill="#737373"/>
</svg>
