<svg width="24" height="24" viewBox="0 0 24 24" fill="none" xmlns="http://www.w3.org/2000/svg">
<path d="M15.9755 7.818H15.9935C17.4495 7.818 18.6415 6.636 18.6535 5.177C18.6635 3.711 17.4785 2.51 16.0115 2.5H15.9945C14.5375 2.5 13.3455 3.681 13.3355 5.157C13.3305 6.619 14.5155 7.813 15.9755 7.818Z" fill="#737373"/>
<path d="M9.65224 14.6599H9.67024C11.1272 14.6599 12.3182 13.4769 12.3292 12.0179C12.3342 11.3079 12.0612 10.6389 11.5622 10.1329C11.0632 9.62788 10.3972 9.34688 9.68724 9.34188C8.97924 9.32688 8.30824 9.60888 7.80324 10.1079C7.29724 10.6059 7.01624 11.2719 7.01124 11.9989C7.00924 12.7069 7.28224 13.3739 7.78124 13.8759C8.28024 14.3789 8.94524 14.6569 9.65224 14.6599Z" fill="#737373"/>
<path d="M16.4005 21.5006H16.3825C14.9215 21.4956 13.7365 20.3026 13.7415 18.8406C13.7525 17.3646 14.9435 16.1836 16.4005 16.1836H16.4185C17.1295 16.1886 17.7955 16.4696 18.2935 16.9756C18.7925 17.4806 19.0635 18.1506 19.0585 18.8616C19.0485 20.3206 17.8575 21.5006 16.4005 21.5006Z" fill="#737373"/>
<path d="M12.208 6.1582C12.3407 6.1582 12.4365 6.03134 12.4098 5.90141C12.3602 5.65967 12.3345 5.40933 12.3354 5.153C12.3372 4.90017 12.3642 4.6536 12.414 4.41566C12.4413 4.28557 12.3454 4.1582 12.2125 4.1582H4.64917C4.09717 4.1582 3.64917 4.6062 3.64917 5.1582C3.64917 5.7102 4.09717 6.1582 4.64917 6.1582H12.208Z" fill="#737373"/>
<path d="M21.3101 6.1582H19.7788C19.6459 6.1582 19.5501 6.031 19.5771 5.90095C19.6251 5.66984 19.6512 5.43077 19.6533 5.186V5.184C19.655 4.92065 19.6287 4.66351 19.5772 4.41543C19.5503 4.28538 19.6461 4.1582 19.779 4.1582H21.3101C21.8631 4.1582 22.3101 4.6062 22.3101 5.1582C22.3101 5.7102 21.8631 6.1582 21.3101 6.1582Z" fill="#737373"/>
<path d="M6.08535 12.7455C6.11183 12.8753 6.01601 13.002 5.8835 13.002H4.6499C4.0969 13.002 3.6499 12.554 3.6499 12.002C3.6499 11.45 4.0969 11.002 4.6499 11.002H5.88563C6.01815 11.002 6.11398 11.1286 6.08739 11.2584C6.0385 11.4971 6.0127 11.7434 6.01119 11.9948C6.0104 12.25 6.03553 12.5012 6.08535 12.7455Z" fill="#737373"/>
<path d="M21.3118 13.002H13.4542C13.3214 13.002 13.2255 12.8747 13.2526 12.7446C13.301 12.512 13.3272 12.2713 13.3291 12.0248C13.331 11.7644 13.3057 11.508 13.2546 11.2587C13.228 11.1288 13.3238 11.002 13.4564 11.002H21.3118C21.8638 11.002 22.3118 11.45 22.3118 12.002C22.3118 12.554 21.8638 13.002 21.3118 13.002Z" fill="#737373"/>
<path d="M12.8158 19.585C12.8425 19.7149 12.7466 19.8418 12.614 19.8418H4.64917C4.09617 19.8418 3.64917 19.3938 3.64917 18.8418C3.64917 18.2898 4.09617 17.8418 4.64917 17.8418H12.6184C12.7513 17.8418 12.8472 17.9692 12.82 18.0993C12.7701 18.3372 12.7431 18.5838 12.7414 18.8366C12.7405 19.0929 12.7662 19.3433 12.8158 19.585Z" fill="#737373"/>
<path d="M21.3113 19.8418H20.1848C20.0521 19.8418 19.9562 19.7147 19.9831 19.5847C20.031 19.3529 20.0569 19.1131 20.0585 18.8676C20.0604 18.6062 20.035 18.3488 19.9836 18.0986C19.9569 17.9686 20.0528 17.8418 20.1854 17.8418H21.3113C21.8643 17.8418 22.3113 18.2898 22.3113 18.8418C22.3113 19.3938 21.8643 19.8418 21.3113 19.8418Z" fill="#737373"/>
</svg>
