<svg width="24" height="24" viewBox="0 0 24 24" fill="none" xmlns="http://www.w3.org/2000/svg">
<path fill-rule="evenodd" clip-rule="evenodd" d="M6.89286 3.75C5.15668 3.75 3.75 5.15693 3.75 6.89189V8.46907C3.75 8.88328 3.41421 9.21907 3 9.21907C2.58579 9.21907 2.25 8.88328 2.25 8.46907V6.89189C2.25 4.32825 4.3285 2.25 6.89286 2.25H8.18205C8.59626 2.25 8.93205 2.58579 8.93205 3C8.93205 3.41421 8.59626 3.75 8.18205 3.75H6.89286Z" fill="#737373"/>
<path fill-rule="evenodd" clip-rule="evenodd" d="M3 14.7812C3.41421 14.7812 3.75 15.117 3.75 15.5312V17.1084C3.75 18.8434 5.15668 20.2503 6.89286 20.2503H8.14994C8.56415 20.2503 8.89994 20.5861 8.89994 21.0003C8.89994 21.4145 8.56415 21.7503 8.14994 21.7503H6.89286C4.3285 21.7503 2.25 19.672 2.25 17.1084V15.5312C2.25 15.117 2.58579 14.7812 3 14.7812Z" fill="#737373"/>
<path fill-rule="evenodd" clip-rule="evenodd" d="M21.0004 14.7812C21.4146 14.7812 21.7504 15.117 21.7504 15.5312V17.1084C21.7504 19.672 19.6718 21.7503 17.1075 21.7503H15.8184C15.4041 21.7503 15.0684 21.4145 15.0684 21.0003C15.0684 20.5861 15.4041 20.2503 15.8184 20.2503H17.1075C18.8437 20.2503 20.2504 18.8434 20.2504 17.1084V15.5312C20.2504 15.117 20.5861 14.7812 21.0004 14.7812Z" fill="#737373"/>
<path fill-rule="evenodd" clip-rule="evenodd" d="M15.0996 3C15.0996 2.58579 15.4354 2.25 15.8496 2.25H17.1067C19.6711 2.25 21.7495 4.32827 21.7495 6.89189V8.46907C21.7495 8.88328 21.4137 9.21907 20.9995 9.21907C20.5853 9.21907 20.2495 8.88328 20.2495 8.46907V6.89189C20.2495 5.15691 18.8429 3.75 17.1067 3.75H15.8496C15.4354 3.75 15.0996 3.41421 15.0996 3Z" fill="#737373"/>
<path fill-rule="evenodd" clip-rule="evenodd" d="M11.9996 17.6398C15.1148 17.6398 17.6398 15.1148 17.6398 11.9996C17.6398 8.88431 15.1148 6.35938 11.9996 6.35938C8.88431 6.35938 6.35938 8.88431 6.35938 11.9996C6.35938 15.1148 8.88431 17.6398 11.9996 17.6398ZM10.5601 9.62695C10.9743 9.62695 11.3101 9.96274 11.3101 10.377V10.4353C11.3101 10.8495 10.9743 11.1853 10.5601 11.1853C10.1458 11.1853 9.81006 10.8495 9.81006 10.4353V10.377C9.81006 9.96274 10.1458 9.62695 10.5601 9.62695ZM13.4941 9.62695C13.9083 9.62695 14.2441 9.96274 14.2441 10.377V10.4353C14.2441 10.8495 13.9083 11.1853 13.4941 11.1853C13.0798 11.1853 12.7441 10.8495 12.7441 10.4353V10.377C12.7441 9.96274 13.0798 9.62695 13.4941 9.62695ZM10.9287 12.9977C10.688 12.6607 10.2195 12.5826 9.88249 12.8234C9.54543 13.0641 9.46736 13.5325 9.70812 13.8696C10.2189 14.5847 11.0688 15.0204 12.0019 15.0204C12.935 15.0204 13.7849 14.5847 14.2957 13.8696C14.5365 13.5325 14.4584 13.0641 14.1213 12.8234C13.7843 12.5826 13.3159 12.6607 13.0751 12.9977C12.8559 13.3046 12.4681 13.5204 12.0019 13.5204C11.5357 13.5204 11.1479 13.3046 10.9287 12.9977Z" fill="#737373"/>
</svg>
