<svg width="24" height="24" viewBox="0 0 24 24" fill="none" xmlns="http://www.w3.org/2000/svg">
<path fill-rule="evenodd" clip-rule="evenodd" d="M19.1214 16.9837C18.8105 16.6712 18.3184 16.6363 17.9668 16.9006C17.7228 17.0845 17.4787 17.2849 17.2163 17.5002C17.1529 17.5522 17.0884 17.6052 17.0226 17.6589C16.6923 17.9288 16.3364 18.2137 15.9609 18.4717C15.2139 18.9852 14.3231 19.4406 13.275 19.4658C12.9841 19.4725 12.6821 19.4608 12.41 19.4502C12.3195 19.4467 12.2323 19.4433 12.1497 19.4408C11.7986 19.4299 11.4918 19.4317 11.2019 19.4739C10.792 19.5336 10.4113 19.2497 10.3517 18.8398C10.292 18.4299 10.5759 18.0492 10.9858 17.9895C11.4104 17.9277 11.8245 17.93 12.196 17.9415C12.3053 17.9448 12.4089 17.9489 12.5087 17.9527C12.7664 17.9627 12.9988 17.9718 13.2393 17.9662C13.8645 17.9511 14.4658 17.6793 15.1112 17.2356C15.4319 17.0151 15.7473 16.7639 16.0734 16.4974C16.133 16.4487 16.1933 16.3992 16.2542 16.3492C16.5184 16.1324 16.7928 15.9071 17.0642 15.7026C18.0138 14.9879 19.345 15.0822 20.1843 15.9252C21.115 16.8588 21.115 18.3728 20.1843 19.3064C20.1088 19.3821 20.0335 19.458 19.958 19.5339C18.6838 20.8168 17.3945 22.115 15.4692 22.8638C12.7022 23.9397 10.1321 23.4319 7.59246 22.93C7.5429 22.9202 7.49336 22.9104 7.44382 22.9007C6.50975 22.7153 5.64095 22.7019 4.61426 22.7019C4.20004 22.7019 3.86426 22.3661 3.86426 21.9519C3.86426 21.5377 4.20004 21.2019 4.61426 21.2019C5.6407 21.2019 6.64127 21.2122 7.73479 21.4292C10.3875 21.9527 12.5724 22.3808 14.9254 21.4659C16.5466 20.8353 17.6287 19.7479 18.9514 18.4187C19.0078 18.362 19.0646 18.305 19.1219 18.2475C19.469 17.8993 19.4685 17.3318 19.1214 16.9837Z" fill="#737373"/>
<path fill-rule="evenodd" clip-rule="evenodd" d="M9.39216 14.0026C10.7087 13.9718 11.9481 14.2204 13.1302 14.5167C14.2479 14.7975 15.0778 15.7464 15.0778 16.9568C15.0778 18.4286 13.877 19.441 12.5043 19.441H11.092C10.6777 19.441 10.342 19.1052 10.342 18.691C10.342 18.2768 10.6777 17.941 11.092 17.941H12.5043C13.1494 17.941 13.5778 17.5029 13.5778 16.9568C13.5778 16.4909 13.2727 16.0991 12.7652 15.9715C11.6215 15.6849 10.539 15.4762 9.42767 15.5022C7.94565 15.5386 6.87845 16.2634 5.52171 17.1849C5.36274 17.2929 5.1998 17.4035 5.03175 17.5161C4.68761 17.7466 4.22176 17.6545 3.99123 17.3104C3.76069 16.9663 3.85279 16.5004 4.19692 16.2699C4.35638 16.1631 4.51711 16.0529 4.67983 15.9414C5.9947 15.0405 7.44033 14.0503 9.39216 14.0026Z" fill="#737373"/>
<path fill-rule="evenodd" clip-rule="evenodd" d="M9.88891 1.80137L10.8804 3.71756C11.0015 3.95174 10.9908 4.23235 10.8522 4.45662C10.7289 4.65593 10.606 4.85317 10.4838 5.04919C10.1365 5.60642 9.79521 6.15389 9.47081 6.71152C8.72104 7.99996 8.23438 9.09908 8.65626 10.1857C9.13788 11.4267 10.6113 11.9707 12.2497 12C13.8887 11.9707 15.3621 11.4267 15.8437 10.1858C16.2656 9.09916 15.779 8.00005 15.0293 6.71158C14.6815 6.11382 14.3137 5.52209 13.9414 4.92307C13.8442 4.76674 13.7468 4.60991 13.6493 4.45235C13.5211 4.24533 13.5015 3.989 13.5965 3.76487L14.2571 2.2072C14.2535 2.20744 14.25 2.20765 14.2466 2.20786L14.2453 2.20794C13.1895 2.26955 12.2347 1.97114 11.3831 1.6292M9.88891 1.80137C10.3741 1.4655 10.8476 1.41431 11.3831 1.6292L9.88891 1.80137ZM8.9406 1.60062L8.44322 1.03927L8.44448 1.03815L8.44638 1.03648L8.45192 1.03162L8.47022 1.01577C8.48571 1.00242 8.50796 0.983452 8.53769 0.958515C8.59714 0.908654 8.68667 0.834822 8.81225 0.734279C9.7307 -0.000323594 10.8089 -0.217559 11.9418 0.237133C12.7279 0.552782 13.4347 0.752522 14.1572 0.710528C14.2558 0.70453 14.5382 0.670898 14.829 0.633582C14.9675 0.615813 15.0983 0.598493 15.1945 0.5856L15.3092 0.570134L15.3507 0.564474C15.618 0.527803 15.885 0.637446 16.049 0.851734C16.2129 1.06602 16.2491 1.35185 16.1438 1.60024L15.1292 3.99262C15.156 4.03561 15.1827 4.07868 15.2095 4.12183C15.5832 4.72297 15.9659 5.33861 16.3258 5.95721C17.0405 7.18553 17.9544 8.89383 17.2421 10.7286C16.4047 12.886 14.0332 13.4711 12.2619 13.5C12.2537 13.5001 12.2456 13.5001 12.2374 13.5C10.4668 13.4711 8.09528 12.886 7.25795 10.7286C6.54568 8.89388 7.45946 7.18557 8.17425 5.95724M8.9406 1.60062L8.44322 1.03927C8.18623 1.26703 8.11668 1.64029 8.27448 1.94527L9.35238 4.02853C9.30871 4.09866 9.26486 4.16901 9.22088 4.23956C8.8701 4.80229 8.51117 5.3781 8.17425 5.95724" fill="#737373"/>
<path d="M10 4L14 4" stroke="#737373" stroke-width="1.5" stroke-linecap="round"/>
</svg>
