<svg width="24" height="24" viewBox="0 0 24 24" fill="none" xmlns="http://www.w3.org/2000/svg">
<path fill-rule="evenodd" clip-rule="evenodd" d="M11.5006 11.6237C11.5006 12.0437 11.1606 12.3737 10.7506 12.3737H9.71062C9.30062 12.3737 8.96062 12.0437 8.96062 11.6237C8.96062 11.2137 9.30062 10.8737 9.71062 10.8737H10.7506C11.1606 10.8737 11.5006 11.2137 11.5006 11.6237ZM10.7506 8.79373H9.71062C9.30062 8.79373 8.96062 8.46373 8.96062 8.04373C8.96062 7.63373 9.30062 7.29373 9.71062 7.29373H10.7506C11.1606 7.29373 11.5006 7.63373 11.5006 8.04373C11.5006 8.46373 11.1606 8.79373 10.7506 8.79373ZM13.4406 8.04373C13.4406 7.63373 13.7806 7.29373 14.1906 7.29373H15.2306C15.6406 7.29373 15.9806 7.63373 15.9806 8.04373C15.9806 8.46373 15.6406 8.79373 15.2306 8.79373H14.1906C13.7806 8.79373 13.4406 8.46373 13.4406 8.04373ZM14.1906 10.8737H15.2306C15.6406 10.8737 15.9806 11.2137 15.9806 11.6237C15.9806 12.0437 15.6406 12.3737 15.2306 12.3737H14.1906C13.7806 12.3737 13.4406 12.0437 13.4406 11.6237C13.4406 11.2137 13.7806 10.8737 14.1906 10.8737ZM13.7306 16.7137H11.2106C11.0306 16.7137 10.8806 16.8737 10.8806 17.0537V20.1237C10.8806 20.2894 10.7463 20.4237 10.5806 20.4237H9.68062C9.51493 20.4237 9.38062 20.2894 9.38062 20.1237V17.0537C9.38062 16.0437 10.2006 15.2137 11.2106 15.2137H13.7306C14.7406 15.2137 15.5606 16.0437 15.5606 17.0537V20.1237C15.5606 20.2894 15.4263 20.4237 15.2606 20.4237H14.3606C14.1949 20.4237 14.0606 20.2894 14.0606 20.1237V17.0537C14.0606 16.8737 13.9106 16.7137 13.7306 16.7137ZM21.0606 20.4237H20.4646C20.2989 20.4237 20.1646 20.2894 20.1646 20.1237V5.34773C20.1646 3.87573 18.9676 2.67773 17.4966 2.67773H7.44762C5.97662 2.67773 4.77962 3.87573 4.77962 5.34773V20.1237C4.77962 20.2894 4.6453 20.4237 4.47962 20.4237H3.88062C3.46062 20.4237 3.13062 20.7637 3.13062 21.1737C3.13062 21.5937 3.46062 21.9237 3.88062 21.9237H21.0606C21.4806 21.9237 21.8106 21.5937 21.8106 21.1737C21.8106 20.7637 21.4806 20.4237 21.0606 20.4237Z" fill="#737373"/>
</svg>
