<svg width="24" height="24" viewBox="0 0 24 24" fill="none" xmlns="http://www.w3.org/2000/svg">
<path fill-rule="evenodd" clip-rule="evenodd" d="M12.0608 13.4332C11.6938 13.2132 11.1548 13.2132 10.0768 13.2132H9.08684C8.90184 13.2132 8.86684 13.1412 8.91884 12.9792C9.63384 10.7562 9.26684 9.87123 8.55784 9.72523C8.28684 9.66923 8.17384 9.67223 7.95984 9.88123C7.26584 10.6992 6.09484 11.9792 5.45584 12.6722C5.29084 12.8512 5.20784 12.9412 5.14884 13.0422C5.09484 13.1362 5.05584 13.2362 5.03184 13.3422C5.00684 13.4562 5.00684 13.5772 5.00684 13.8192V16.7862C5.00684 17.4952 5.00684 17.8492 5.14284 18.1212C5.26684 18.3702 5.46884 18.5722 5.71884 18.6972C5.98984 18.8332 6.34484 18.8332 7.05284 18.8332H10.1528C10.7238 18.8332 11.0098 18.8332 11.2488 18.7352C11.4688 18.6462 11.6608 18.4992 11.8048 18.3092C11.9608 18.1042 12.0358 17.8282 12.1838 17.2772L12.4458 16.3062C12.7268 15.2652 12.8668 14.7452 12.7498 14.3332C12.6428 13.9562 12.3958 13.6352 12.0608 13.4332Z" fill="#737373"/>
<path fill-rule="evenodd" clip-rule="evenodd" d="M18.2809 5.26C18.0099 5.125 17.6549 5.125 16.9469 5.125H13.8469C13.2759 5.125 12.9899 5.125 12.7509 5.222C12.5309 5.311 12.3389 5.458 12.1949 5.648C12.0389 5.854 11.9639 6.129 11.8159 6.68L11.5539 7.652C11.2729 8.692 11.1329 9.213 11.2499 9.624C11.3569 10.001 11.6039 10.322 11.9389 10.524C12.3059 10.745 12.8449 10.745 13.9229 10.745H14.9129C15.0979 10.745 15.1339 10.816 15.0809 10.979C14.3659 13.201 14.7329 14.086 15.4419 14.232C15.7129 14.288 15.8259 14.285 16.0399 14.076C16.7339 13.258 17.9049 11.978 18.5439 11.285C18.7089 11.106 18.7919 11.016 18.8509 10.915C18.9049 10.821 18.9439 10.721 18.9679 10.615C18.9929 10.501 18.9929 10.38 18.9929 10.138V7.171C18.9929 6.462 18.9929 6.108 18.8569 5.836C18.7329 5.587 18.5309 5.385 18.2809 5.26Z" fill="#737373"/>
<path fill-rule="evenodd" clip-rule="evenodd" d="M3.00098 12.6865C2.58698 12.6865 2.25098 13.0225 2.25098 13.4365V18.3595C2.25098 18.7735 2.58698 19.1095 3.00098 19.1095C3.41498 19.1095 3.75098 18.7735 3.75098 18.3595V13.4365C3.75098 13.0225 3.41498 12.6865 3.00098 12.6865Z" fill="#737373"/>
<path fill-rule="evenodd" clip-rule="evenodd" d="M20.249 5.63965C20.249 5.22565 20.585 4.88965 20.999 4.88965C21.413 4.88965 21.749 5.22565 21.749 5.63965V10.5626C21.749 10.9766 21.413 11.3126 20.999 11.3126C20.585 11.3126 20.249 10.9766 20.249 10.5626V5.63965Z" fill="#737373"/>
<path fill-rule="evenodd" clip-rule="evenodd" d="M20.999 4.88965C20.585 4.88965 20.249 5.22565 20.249 5.63965V10.5626C20.249 10.9766 20.585 11.3126 20.999 11.3126C21.413 11.3126 21.749 10.9766 21.749 10.5626V5.63965C21.749 5.22565 21.413 4.88965 20.999 4.88965Z" fill="#737373"/>
</svg>
