<svg width="24" height="24" viewBox="0 0 24 24" fill="none" xmlns="http://www.w3.org/2000/svg">
<path fill-rule="evenodd" clip-rule="evenodd" d="M19.2019 5.65088C19.9185 5.65088 20.5 6.23184 20.5 6.94894V15.1042C20.5 15.6424 20.1799 16.106 19.7197 16.315C19.3597 15.2682 18.3664 14.516 17.1974 14.516C15.985 14.516 14.9615 15.3251 14.6376 16.4328L10.6131 16.4333C10.3589 15.5633 9.6731 14.8774 8.8031 14.6229L8.8029 6.98007C8.8029 6.98006 8.8029 6.98008 8.8029 6.98007C8.8029 6.24621 9.3983 5.65088 10.1321 5.65088H19.2019ZM7.3031 14.6229C6.4334 14.8774 5.7477 15.5631 5.4933 16.4329H5.3292C5.3293 16.4329 5.3291 16.4329 5.3292 16.4329C4.5954 16.4328 4 15.8375 4 15.1037V13.1608H5.6515C6.0657 13.1608 6.4015 12.825 6.4015 12.4108C6.4015 11.9966 6.0657 11.6608 5.6515 11.6608H4C4 11.0217 4.3775 10.4423 4.9614 10.1848L7.303 9.15166L7.3031 14.6229ZM7.3029 7.51216V6.98009C7.3029 5.4178 8.5698 4.15088 10.1321 4.15088H19.2019C20.7465 4.15088 22 5.40295 22 6.94894V15.1042C22 16.4591 21.0471 17.5919 19.775 17.8687C19.4723 19.0091 18.433 19.8494 17.1974 19.8494C15.985 19.8494 14.9616 19.0404 14.6376 17.9328L10.6128 17.9333C10.2886 19.0407 9.2653 19.8494 8.0532 19.8494C6.8408 19.8494 5.8175 19.0405 5.4934 17.9329H5.3294C3.7671 17.9329 2.5 16.666 2.5 15.1037V11.6605C2.5 10.4277 3.2277 9.30997 4.3561 8.8124C4.3561 8.81237 4.356 8.81242 4.3561 8.8124L7.3029 7.51216ZM9.2195 17.2131C9.2034 17.8434 8.6874 18.3494 8.0532 18.3494C7.4088 18.3494 6.8865 17.8271 6.8865 17.1827C6.8865 16.5384 7.4088 16.016 8.0532 16.016C8.6876 16.016 9.2038 16.5225 9.2195 17.1532C9.2191 17.1632 9.2189 17.1733 9.2189 17.1835C9.2189 17.1934 9.2191 17.2033 9.2195 17.2131ZM17.1974 16.016C17.8417 16.016 18.3641 16.5384 18.3641 17.1827C18.3641 17.8271 17.8417 18.3494 17.1974 18.3494C16.553 18.3494 16.0307 17.8271 16.0307 17.1827C16.0307 16.5384 16.553 16.016 17.1974 16.016Z" fill="#737373"/>
</svg>
