<svg width="24" height="24" viewBox="0 0 24 24" fill="none" xmlns="http://www.w3.org/2000/svg">
<path fill-rule="evenodd" clip-rule="evenodd" d="M19.1423 10.44C19.1423 9.838 18.6533 9.349 18.0513 9.349C17.0263 9.349 16.1923 10.183 16.1923 11.208V12.712C16.1923 12.949 16.0063 13.136 15.7683 13.136C14.9043 13.136 14.0433 13.501 13.4063 14.138C12.7683 14.79 12.4163 15.627 12.4163 16.498C12.4163 16.732 12.2263 16.922 11.9923 16.922C11.7593 16.922 11.5683 16.732 11.5683 16.498C11.5683 15.392 12.0113 14.339 12.8153 13.535C13.4713 12.88 14.3263 12.452 15.2213 12.332L15.3443 12.316V5.144C15.3183 4.384 14.6623 3.764 13.8803 3.764C13.1343 3.764 12.4913 4.352 12.4163 5.116V9.231C12.4163 9.469 12.2303 9.655 11.9923 9.655C11.7593 9.655 11.5683 9.465 11.5683 9.231V3.63C11.5433 2.869 10.8863 2.25 10.1043 2.25C9.32227 2.25 8.66527 2.879 8.64027 3.657V9.988C8.64027 10.226 8.45427 10.412 8.21627 10.412C7.97827 10.412 7.79227 10.226 7.79227 9.988V6.665C7.79227 5.864 7.12227 5.189 6.32927 5.189C5.94627 5.189 5.56827 5.349 5.29027 5.626C5.00427 5.912 4.85327 6.27 4.85327 6.665V14.611C4.85327 16.522 5.59427 18.316 6.94127 19.661C8.28627 21.008 10.0803 21.75 11.9923 21.75C13.8763 21.75 15.7173 20.989 17.0443 19.661C18.7103 17.985 19.0283 15.949 19.1193 14.178V14.177C19.1443 13.612 19.1523 12.249 19.1423 10.44Z" fill="#737373"/>
</svg>
