<svg width="24" height="24" viewBox="0 0 24 24" fill="none" xmlns="http://www.w3.org/2000/svg">
<path fill-rule="evenodd" clip-rule="evenodd" d="M19.0972 16.0557V15.2447C19.0972 14.0277 18.1842 13.0137 16.9672 13.0137C15.7512 13.0137 14.8382 13.9257 14.8382 15.2447V16.0557C14.2292 16.2587 13.8242 16.9687 13.8242 17.5767V19.3007C13.8242 20.2137 14.6352 20.9237 15.4462 20.9237H18.6912C19.6042 20.9237 20.3142 20.2137 20.3142 19.3007V17.5767C20.2132 16.8667 19.7062 16.3597 19.0972 16.0557ZM16.9672 14.5347C17.3732 14.5347 17.5762 14.8387 17.5762 15.2447V15.9547H16.2582V15.2447C16.3592 14.8387 16.5622 14.5347 16.9672 14.5347Z" fill="#737373"/>
<path fill-rule="evenodd" clip-rule="evenodd" d="M11.0859 3.07617C13.6629 3.07617 15.7509 5.16417 15.7509 7.74117C15.7509 10.3182 13.6629 12.4062 11.0859 12.4062C8.5089 12.4062 6.4209 10.3182 6.4209 7.74117C6.4209 5.16417 8.5089 3.07617 11.0859 3.07617Z" fill="#737373"/>
<path fill-rule="evenodd" clip-rule="evenodd" d="M10.0716 14.4336C8.65157 14.4336 7.33357 14.6366 6.31957 14.9406C5.71057 15.1436 5.10257 15.4476 4.69657 15.8536C4.29157 16.2586 3.98657 16.8676 3.98657 17.5776C3.98657 18.2876 4.18957 18.7946 4.69657 19.3016C5.10257 19.7066 5.71057 20.0116 6.31957 20.2136C7.33357 20.5186 8.65157 20.7206 10.0716 20.7206C10.6796 20.7206 11.0856 20.3156 11.0856 19.7066V15.4476C11.0856 14.8396 10.6796 14.4336 10.0716 14.4336Z" fill="#737373"/>
</svg>
