<svg width="24" height="24" viewBox="0 0 24 24" fill="none" xmlns="http://www.w3.org/2000/svg">
<path fill-rule="evenodd" clip-rule="evenodd" d="M3 18.75C3 18.3358 3.33579 18 3.75 18H19.75C20.1642 18 20.5 18.3358 20.5 18.75C20.5 19.1642 20.1642 19.5 19.75 19.5H3.75C3.33579 19.5 3 19.1642 3 18.75Z" fill="#737373"/>
<path fill-rule="evenodd" clip-rule="evenodd" d="M3 4.75C3 4.33579 3.33579 4 3.75 4H19.75C20.1642 4 20.5 4.33579 20.5 4.75C20.5 5.16422 20.1642 5.5 19.75 5.5H3.75C3.33579 5.5 3 5.16422 3 4.75Z" fill="#737373"/>
<path fill-rule="evenodd" clip-rule="evenodd" d="M3 11.75C3 11.3358 3.33579 11 3.75 11H19.75C20.1642 11 20.5 11.3358 20.5 11.75C20.5 12.1642 20.1642 12.5 19.75 12.5H3.75C3.33579 12.5 3 12.1642 3 11.75Z" fill="#737373"/>
</svg>
