<svg width="24" height="24" viewBox="0 0 24 24" fill="none" xmlns="http://www.w3.org/2000/svg">
<path fill-rule="evenodd" clip-rule="evenodd" d="M19.3449 8.09773C19.3449 6.69973 18.9289 5.52973 18.1259 4.72673C17.4019 4.01373 16.3809 3.60673 15.1709 3.49773V2.54573C15.1709 2.13973 14.8339 1.80273 14.4279 1.80273C14.0119 1.80273 13.6839 2.13973 13.6839 2.54573V6.06573C13.6149 6.08573 13.5559 6.10473 13.4859 6.10473C13.0699 6.10473 12.7429 5.76773 12.7429 5.36173V3.65773C12.7429 3.54728 12.6534 3.45773 12.5429 3.45773H7.95395V2.54573C7.95395 2.13973 7.62695 1.80273 7.21095 1.80273C6.80395 1.80273 6.46695 2.13973 6.46695 2.54573V6.06573C6.40795 6.08573 6.33895 6.10473 6.26895 6.10473C5.86295 6.10473 5.52595 5.76773 5.52595 5.36173V3.91219C5.52595 3.7823 5.40363 3.68681 5.27921 3.72412C3.38753 4.29146 2.29395 5.82578 2.29395 8.09773V8.69073C2.29395 8.80119 2.38349 8.89073 2.49395 8.89073H19.1449C19.2554 8.89073 19.3449 8.80119 19.3449 8.69073V8.09773Z" fill="#737373"/>
<path fill-rule="evenodd" clip-rule="evenodd" d="M9.46004 14.527C9.04004 14.527 8.69004 14.177 8.69004 13.747C8.69004 13.317 9.04004 12.967 9.46004 12.967C9.89004 12.967 10.24 13.317 10.24 13.747C10.24 14.177 9.89004 14.527 9.46004 14.527ZM5.78004 14.527C5.35004 14.527 5.00004 14.177 5.00004 13.747C5.00004 13.317 5.35004 12.967 5.78004 12.967C6.21004 12.967 6.56004 13.317 6.56004 13.747C6.56004 14.177 6.21004 14.527 5.78004 14.527ZM5.78004 17.877C5.35004 17.877 5.00004 17.527 5.00004 17.097C5.00004 16.667 5.35004 16.327 5.78004 16.327C6.21004 16.327 6.56004 16.667 6.56004 17.097C6.56004 17.527 6.21004 17.877 5.78004 17.877ZM17.3 11.877C17.9172 11.877 18.5122 11.9798 19.0664 12.1603C19.1996 12.2037 19.34 12.1068 19.34 11.9667V10.577C19.34 10.4665 19.2505 10.377 19.14 10.377H2.49004C2.37958 10.377 2.29004 10.4665 2.29004 10.577V16.167C2.29004 19.117 4.07004 20.887 7.04004 20.887H11.9954C12.1533 20.887 12.2501 20.7117 12.1736 20.5736C11.7078 19.733 11.44 18.7665 11.44 17.737C11.44 14.507 14.06 11.877 17.3 11.877Z" fill="#737373"/>
<path fill-rule="evenodd" clip-rule="evenodd" d="M19.19 19.2268C19.05 19.4568 18.8 19.5868 18.55 19.5868C18.42 19.5868 18.28 19.5568 18.16 19.4768L16.94 18.7468C16.72 18.6168 16.58 18.3768 16.58 18.1068V16.5368C16.58 16.1268 16.91 15.7868 17.33 15.7868C17.74 15.7868 18.08 16.1268 18.08 16.5368V17.6868L18.93 18.1968C19.29 18.4068 19.4 18.8668 19.19 19.2268ZM17.35 13.4668C14.94 13.4668 12.99 15.4268 12.99 17.8368C12.99 20.2368 14.94 22.1968 17.35 22.1968C19.75 22.1968 21.71 20.2368 21.71 17.8368C21.71 15.4268 19.75 13.4668 17.35 13.4668Z" fill="#737373"/>
</svg>
