<svg width="24" height="24" viewBox="0 0 24 24" fill="none" xmlns="http://www.w3.org/2000/svg">
<path fill-rule="evenodd" clip-rule="evenodd" d="M11.8531 9.6C10.3351 9.6 9.1001 10.833 9.1001 12.35C9.1001 13.867 10.3351 15.1 11.8531 15.1C13.3711 15.1 14.6051 13.867 14.6051 12.35C14.6051 10.833 13.3711 9.6 11.8531 9.6Z" fill="#737373"/>
<path fill-rule="evenodd" clip-rule="evenodd" d="M16.864 8.409C16.294 8.409 15.829 7.947 15.829 7.38C15.829 6.811 16.294 6.349 16.864 6.349C17.434 6.349 17.898 6.811 17.898 7.38C17.898 7.947 17.434 8.409 16.864 8.409ZM11.844 16.58C9.5 16.58 7.592 14.674 7.592 12.33C7.592 9.98601 9.5 8.08 11.844 8.08C14.189 8.08 16.096 9.98601 16.096 12.33C16.096 14.674 14.189 16.58 11.844 16.58ZM16.217 2.5H7.782C4.623 2.5 2.5 4.722 2.5 8.03V15.97C2.5 19.277 4.623 21.5 7.782 21.5H16.216C19.376 21.5 21.5 19.277 21.5 15.97V8.03C21.5 4.722 19.377 2.5 16.217 2.5Z" fill="#737373"/>
</svg>
