<svg width="24" height="24" viewBox="0 0 24 24" fill="none" xmlns="http://www.w3.org/2000/svg">
<path fill-rule="evenodd" clip-rule="evenodd" d="M12.4366 17.7891C12.9946 17.7891 13.4474 18.2413 13.4474 18.7998C13.4474 19.3576 12.9952 19.8106 12.4366 19.8106C11.878 19.8106 11.4258 19.3576 11.4258 18.7998C11.4258 18.2413 11.8786 17.7891 12.4366 17.7891Z" fill="#737373"/>
<path fill-rule="evenodd" clip-rule="evenodd" d="M12.4366 11.7656C12.9946 11.7656 13.4474 12.2179 13.4474 12.7763C13.4474 13.3342 12.9952 13.7872 12.4366 13.7872C11.878 13.7872 11.4258 13.3342 11.4258 12.7763C11.4258 12.2179 11.8786 11.7656 12.4366 11.7656Z" fill="#737373"/>
<path fill-rule="evenodd" clip-rule="evenodd" d="M12.4366 5.74609C12.9946 5.74609 13.4474 6.19833 13.4474 6.75679C13.4474 7.31467 12.9952 7.76765 12.4366 7.76765C11.878 7.76765 11.4258 7.31467 11.4258 6.75679C11.4258 6.19832 11.8786 5.74609 12.4366 5.74609Z" fill="#737373"/>
</svg>
