<svg width="24" height="24" viewBox="0 0 24 24" fill="none" xmlns="http://www.w3.org/2000/svg">
<path fill-rule="evenodd" clip-rule="evenodd" d="M13.2501 10.339C13.2501 10.753 12.9141 11.089 12.5001 11.089C12.0861 11.089 11.7501 10.753 11.7501 10.339V7.79602C11.7501 7.38202 12.0861 7.04602 12.5001 7.04602C12.9141 7.04602 13.2501 7.38202 13.2501 7.79602V10.339ZM18.3961 12.74L17.4561 11.565C17.0961 11.113 16.8961 10.549 16.8921 9.97602L16.8691 7.36902C16.8651 6.88702 17.1581 6.51702 17.4031 6.29202C17.9291 5.81202 18.1911 5.12902 18.1241 4.41702C18.0161 3.27202 16.9821 2.37402 15.7711 2.37402H9.22913C8.01813 2.37402 6.98413 3.27202 6.87613 4.41702C6.80913 5.12902 7.07113 5.81202 7.59513 6.29102C7.84213 6.51702 8.13513 6.88702 8.13113 7.36902L8.10813 9.97802C8.10413 10.55 7.90413 11.114 7.54413 11.564L6.60413 12.74C6.01413 13.478 5.90213 14.466 6.31213 15.318C6.72213 16.17 7.56313 16.699 8.50913 16.699H11.7501V20.876C11.7501 21.29 12.0861 21.626 12.5001 21.626C12.9141 21.626 13.2501 21.29 13.2501 20.876V16.699H16.4911C17.4371 16.699 18.2791 16.17 18.6881 15.318C19.0981 14.466 18.9861 13.479 18.3961 12.74Z" fill="#737373"/>
</svg>
