<svg width="24" height="24" viewBox="0 0 24 24" fill="none" xmlns="http://www.w3.org/2000/svg">
<path fill-rule="evenodd" clip-rule="evenodd" d="M12 10.645C10.82 10.645 9.86007 9.685 9.86007 8.505C9.86007 7.325 10.82 6.365 12 6.365C13.18 6.365 14.14 7.325 14.14 8.505C14.14 9.685 13.18 10.645 12 10.645ZM12 2.375C8.59007 2.375 5.82007 5.145 5.82007 8.555C5.82007 12.785 10.65 16.955 12 16.955C13.34 16.955 18.17 12.785 18.17 8.555C18.17 5.145 15.4 2.375 12 2.375Z" fill="#737373"/>
<path fill-rule="evenodd" clip-rule="evenodd" d="M18.8156 14.7954C18.4546 14.5914 17.9966 14.7214 17.7946 15.0824C17.5916 15.4434 17.7196 15.9004 18.0816 16.1034C18.8566 16.5384 19.2836 17.0244 19.2836 17.4734C19.2836 18.0764 18.5306 18.5894 18.0666 18.8504C17.7616 19.0304 17.4206 19.1884 17.0216 19.3344C14.2656 20.3554 9.74855 20.3574 6.98255 19.3324C6.61355 19.1984 6.25655 19.0334 5.91955 18.8414C5.46955 18.5904 4.71655 18.0774 4.71655 17.4734C4.71655 16.8674 5.46955 16.3554 5.91955 16.1034C6.28055 15.9004 6.40855 15.4434 6.20655 15.0824C6.00355 14.7214 5.54755 14.5934 5.18455 14.7954C3.55855 15.7074 3.21655 16.7544 3.21655 17.4734C3.21655 18.1904 3.55855 19.2374 5.18155 20.1484C5.58855 20.3794 6.02255 20.5794 6.46555 20.7404C8.00655 21.3114 9.97355 21.6264 12.0036 21.6264C14.0356 21.6264 16.0026 21.3114 17.5396 20.7414C18.0226 20.5664 18.4446 20.3694 18.8156 20.1494C20.4416 19.2364 20.7836 18.1904 20.7836 17.4734C20.7836 16.7554 20.4416 15.7084 18.8156 14.7954Z" fill="#737373"/>
</svg>
