<svg width="24" height="24" viewBox="0 0 24 24" fill="none" xmlns="http://www.w3.org/2000/svg">
<path fill-rule="evenodd" clip-rule="evenodd" d="M7.6741 9.71336C8.0521 8.84136 8.5451 8.02336 9.1471 7.27236C9.2331 7.16436 9.2711 7.02536 9.2511 6.88836C9.2321 6.75136 9.1561 6.62936 9.0431 6.55036C8.5421 6.19836 8.0391 5.85736 7.5351 5.51536C7.3621 5.39836 7.1361 5.40136 6.9631 5.52336C4.9321 6.98136 3.4531 9.11036 2.8001 11.5184C2.4791 12.6954 2.1281 14.9374 3.3881 16.7284C4.2081 17.8844 5.6291 18.5704 7.0341 18.5704C7.4081 18.5704 7.7811 18.5224 8.1421 18.4214C9.5791 18.0254 10.6961 16.9134 11.1291 15.4464C11.5791 13.9204 11.2311 12.3174 10.1971 11.1574C9.5381 10.4144 8.6441 9.90736 7.6741 9.71336Z" fill="#737373"/>
<path fill-rule="evenodd" clip-rule="evenodd" d="M20.3773 11.158C19.7183 10.415 18.8233 9.90799 17.8543 9.71399C18.2323 8.83999 18.7273 8.02099 19.3263 7.27199C19.4133 7.16499 19.4513 7.02599 19.4323 6.88799C19.4123 6.75199 19.3363 6.62999 19.2233 6.54999C18.7213 6.19899 18.2193 5.85599 17.7153 5.51499C17.5413 5.39799 17.3143 5.40199 17.1433 5.52299C15.1113 6.98099 13.6333 9.11099 12.9803 11.518C12.6583 12.697 12.3093 14.941 13.5663 16.728C14.3873 17.885 15.8083 18.571 17.2143 18.571C17.5883 18.571 17.9623 18.522 18.3223 18.422C19.7593 18.026 20.8763 16.915 21.3093 15.449C21.7593 13.923 21.4113 12.318 20.3773 11.158Z" fill="#737373"/>
</svg>
