<svg width="24" height="24" viewBox="0 0 24 24" fill="none" xmlns="http://www.w3.org/2000/svg">
<path fill-rule="evenodd" clip-rule="evenodd" d="M11.999 20.249C10.832 20.249 9.88505 19.306 9.87305 18.143H14.124C14.112 19.306 13.165 20.249 11.999 20.249ZM19.02 13.488C18.741 12.897 18.6 12.265 18.6 11.606L18.599 10.382C18.599 6.998 16.036 4.205 12.75 3.831V3C12.75 2.586 12.414 2.25 12 2.25C11.586 2.25 11.25 2.586 11.25 3V3.831C7.96605 4.205 5.40405 6.999 5.40405 10.382L5.40305 11.606C5.40305 12.251 5.25805 12.902 4.98305 13.488L4.55005 14.408C4.16505 15.223 4.22505 16.165 4.70705 16.926C5.19005 17.688 6.01805 18.143 6.91905 18.143H8.37305C8.38505 20.133 10.006 21.749 11.999 21.749C13.992 21.749 15.612 20.133 15.624 18.143H17.082C17.983 18.143 18.811 17.688 19.293 16.927C19.776 16.166 19.836 15.224 19.452 14.408L19.02 13.488Z" fill="#737373"/>
<path fill-rule="evenodd" clip-rule="evenodd" d="M5.11797 6.7934C5.53497 5.8844 6.18997 5.0654 7.01297 4.4234C7.33997 4.1684 7.39697 3.6974 7.14297 3.3704C6.88797 3.0434 6.41697 2.9844 6.09097 3.2404C5.07897 4.0294 4.27097 5.0424 3.75497 6.1674C3.58197 6.5444 3.74697 6.9894 4.12397 7.1624C4.22497 7.2084 4.33097 7.2304 4.43597 7.2304C4.71997 7.2304 4.99197 7.0684 5.11797 6.7934Z" fill="#737373"/>
<path fill-rule="evenodd" clip-rule="evenodd" d="M20.2449 6.16752C19.7289 5.04252 18.9209 4.03052 17.9079 3.24052C17.5809 2.98452 17.1099 3.04352 16.8549 3.37052C16.6009 3.69752 16.6589 4.16852 16.9859 4.42352C17.8089 5.06552 18.4659 5.88552 18.8819 6.79352C19.0079 7.06852 19.2799 7.23052 19.5629 7.23052C19.6689 7.23052 19.7749 7.20852 19.8759 7.16252C20.2529 6.98952 20.4179 6.54452 20.2449 6.16752Z" fill="#737373"/>
</svg>
