<svg width="24" height="24" viewBox="0 0 24 24" fill="none" xmlns="http://www.w3.org/2000/svg">
<path fill-rule="evenodd" clip-rule="evenodd" d="M17.1059 2C15.6651 2 14.5456 2.99384 13.8416 4.20067C13.1233 5.43206 12.7112 7.06728 12.7112 8.81939C12.7112 11.0346 14.0877 13.0637 16.1052 13.5756V20.9999C16.1052 21.5521 16.5529 21.9999 17.1052 21.9999C17.6575 21.9999 18.1052 21.5521 18.1052 20.9999V13.5756C20.1227 13.0638 21.5006 11.0351 21.5006 8.81939C21.5006 7.06728 21.0884 5.43206 20.3701 4.20067C19.6661 2.99384 18.5467 2 17.1059 2Z" fill="#737373"/>
<path d="M4.70307 3.06294C4.72471 2.51108 4.29488 2.04617 3.74302 2.02453C3.19116 2.00288 2.72625 2.43271 2.70461 2.98457L2.50028 8.19487C2.49977 8.20793 2.49951 8.22099 2.49951 8.23406C2.49951 10.2334 3.88253 11.9091 5.74342 12.3585L5.74341 21C5.74341 21.5523 6.19112 22 6.74341 22C7.29569 22 7.74341 21.5523 7.74341 21L7.74342 12.3585C9.6043 11.909 10.9864 10.2331 10.9864 8.23406C10.9864 8.22106 10.9861 8.20805 10.9856 8.19506L10.7822 2.98476C10.7607 2.43289 10.2959 2.00298 9.74401 2.02452C9.19214 2.04606 8.76223 2.51089 8.78377 3.06276L8.98629 8.25181C8.97676 9.4826 7.97647 10.477 6.74342 10.477C5.51002 10.477 4.50917 9.48226 4.49958 8.25189L4.70307 3.06294Z" fill="#737373"/>
<path d="M7.74341 3.02377C7.74341 2.47148 7.29569 2.02377 6.74341 2.02377C6.19112 2.02377 5.74341 2.47148 5.74341 3.02377V7.80596C5.74341 8.35824 6.19112 8.80596 6.74341 8.80596C7.29569 8.80596 7.74341 8.35824 7.74341 7.80596V3.02377Z" fill="#737373"/>
</svg>
