<svg width="24" height="24" viewBox="0 0 24 24" fill="none" xmlns="http://www.w3.org/2000/svg">
<path fill-rule="evenodd" clip-rule="evenodd" d="M17.105 21.5027C16.6909 21.5027 16.355 21.1627 16.355 20.7527V13.1287C14.3638 12.7293 12.9609 10.7662 12.9609 8.57263C12.9609 6.85262 13.3652 5.26263 14.0571 4.08264C14.7388 2.91263 15.791 2.00269 17.106 2.00269C18.4209 2.00269 19.4722 2.91263 20.1538 4.08264C20.8462 5.26263 21.25 6.85262 21.25 8.57263C21.25 10.7663 19.8462 12.7293 17.855 13.1287V20.7527C17.855 21.1627 17.519 21.5027 17.105 21.5027ZM14.4609 8.57263C14.4609 10.4026 15.7358 11.7026 17.105 11.7026C18.4751 11.7026 19.75 10.3926 19.75 8.57263C19.75 7.07263 19.395 5.75266 18.8579 4.83264C18.311 3.89264 17.666 3.50269 17.106 3.50269C16.5459 3.50269 15.8999 3.89264 15.353 4.83264C14.8169 5.75266 14.4609 7.07263 14.4609 8.57263Z" fill="#737373"/>
<path d="M3.73291 2.02272C4.14697 2.0427 4.46924 2.39274 4.45312 2.80274L4.25 7.98268V7.98765C4.25244 9.36537 5.36768 10.4827 6.74316 10.4827C8.11865 10.4827 9.2334 9.36527 9.23584 7.98747V7.98268L9.03418 2.80274C9.01709 2.39274 9.33984 2.0427 9.75391 2.02272C10.168 2.01271 10.5161 2.33268 10.5322 2.74269L10.7358 7.95265V7.98268C10.7358 9.93583 9.34033 11.5609 7.49316 11.9123V20.7527C7.49316 21.1627 7.1582 21.5027 6.74316 21.5027C6.3291 21.5027 5.99316 21.1627 5.99316 20.7527V11.9122C4.14648 11.5608 2.75 9.93574 2.75 7.98268V7.95265L2.9541 2.74269C2.97119 2.33268 3.31885 2.01271 3.73291 2.02272Z" fill="#737373"/>
<path d="M6.74316 8.31274C6.3291 8.31274 5.99316 7.97274 5.99316 7.56273V2.77271C5.99316 2.3627 6.3291 2.02271 6.74316 2.02271C7.1582 2.02271 7.49316 2.3627 7.49316 2.77271V7.56273C7.49316 7.97274 7.1582 8.31274 6.74316 8.31274Z" fill="#737373"/>
</svg>
