<svg width="24" height="24" viewBox="0 0 24 24" fill="none" xmlns="http://www.w3.org/2000/svg">
<path fill-rule="evenodd" clip-rule="evenodd" d="M12.4714 16.4453C11.4624 16.4453 10.6414 17.2663 10.6414 18.2753V21.5003C10.6414 21.666 10.7757 21.8003 10.9414 21.8003H14.0024C14.1681 21.8003 14.3024 21.666 14.3024 21.5003V18.2753C14.3024 17.2663 13.4804 16.4453 12.4714 16.4453Z" fill="#737373"/>
<path fill-rule="evenodd" clip-rule="evenodd" d="M18.9152 15.9444C18.9152 16.3584 18.5792 16.6994 18.1652 16.6994C17.7512 16.6994 17.4152 16.3684 17.4152 15.9544V15.9444C17.4152 15.5304 17.7512 15.1944 18.1652 15.1944C18.5792 15.1944 18.9152 15.5304 18.9152 15.9444ZM15.6039 12.2821C15.4939 12.2069 15.3485 12.207 15.2386 12.2822C14.4475 12.8235 13.4998 13.1504 12.4712 13.1504C11.4425 13.1504 10.4948 12.8234 9.70286 12.2821C9.59291 12.2069 9.44744 12.207 9.33752 12.2822C8.54646 12.8235 7.59874 13.1504 6.57016 13.1504C5.8586 13.1504 5.14963 12.988 4.49664 12.6921C4.28645 12.5969 4.03516 12.7435 4.03516 12.9742V18.4324C4.04016 19.3364 4.39616 20.1854 5.04016 20.8214C5.67916 21.4534 6.52316 21.8004 7.41616 21.8004H8.84116C9.00684 21.8004 9.14116 21.6661 9.14116 21.5004V18.2754C9.14116 16.4384 10.6352 14.9444 12.4712 14.9444C14.3082 14.9444 15.8022 16.4384 15.8022 18.2754V21.5004C15.8022 21.6661 15.9365 21.8004 16.1022 21.8004H17.5212C19.3782 21.8004 20.8962 20.2944 20.9082 18.4304V12.9732C20.9082 12.7425 20.6569 12.5959 20.4467 12.6912C19.7934 12.9874 19.0838 13.1504 18.3722 13.1504C17.3435 13.1504 16.3958 12.8234 15.6039 12.2821Z" fill="#737373"/>
<path fill-rule="evenodd" clip-rule="evenodd" d="M21.8229 8.11778C21.6919 7.21978 21.2589 5.81878 20.9189 4.80078C20.5179 3.60478 19.3989 2.80078 18.1349 2.80078H6.79187C5.52087 2.80078 4.40087 3.60978 4.00387 4.81478C3.51987 6.29278 3.22187 7.40378 3.11887 8.11778C3.00387 8.91178 3.25787 9.71478 3.83187 10.3788C4.51087 11.1628 5.55987 11.6498 6.56987 11.6498C7.62966 11.6498 8.5884 11.1386 9.22565 10.3577C9.36849 10.1827 9.65522 10.1839 9.79701 10.3598C10.429 11.1438 11.3887 11.6498 12.4709 11.6498C13.5538 11.6498 14.5136 11.1438 15.145 10.36C15.2867 10.184 15.5734 10.1826 15.7163 10.3575C16.3542 11.1386 17.3129 11.6498 18.3719 11.6498C19.3809 11.6498 20.4279 11.1628 21.1079 10.3798C21.6829 9.71678 21.9369 8.91278 21.8229 8.11778Z" fill="#737373"/>
</svg>
